<?xml version="1.0" encoding="utf-8" standalone="no"?>
<!DOCTYPE svg PUBLIC "-//W3C//DTD SVG 1.1//EN"
  "http://www.w3.org/Graphics/SVG/1.1/DTD/svg11.dtd">
<svg xmlns:xlink="http://www.w3.org/1999/xlink" width="432pt" height="216pt" viewBox="0 0 432 216" xmlns="http://www.w3.org/2000/svg" version="1.1">
 <metadata>
  <rdf:RDF xmlns:dc="http://purl.org/dc/elements/1.1/" xmlns:cc="http://creativecommons.org/ns#" xmlns:rdf="http://www.w3.org/1999/02/22-rdf-syntax-ns#">
   <cc:Work>
    <dc:type rdf:resource="http://purl.org/dc/dcmitype/StillImage"/>
    <dc:date>2024-01-22T18:04:53.417517</dc:date>
    <dc:format>image/svg+xml</dc:format>
    <dc:creator>
     <cc:Agent>
      <dc:title>Matplotlib v3.5.2, https://matplotlib.org/</dc:title>
     </cc:Agent>
    </dc:creator>
   </cc:Work>
  </rdf:RDF>
 </metadata>
 <defs>
  <style type="text/css">*{stroke-linejoin: round; stroke-linecap: butt}</style>
 </defs>
 <g id="figure_1">
  <g id="patch_1">
   <path d="M 0 216 
L 432 216 
L 432 0 
L 0 0 
z
" style="fill: #ffffff"/>
  </g>
  <g id="axes_1">
   <g id="patch_2">
    <path d="M 54 192.24 
L 388.8 192.24 
L 388.8 25.92 
L 54 25.92 
z
" style="fill: #ffffff"/>
   </g>
   <g id="matplotlib.axis_1">
    <g id="xtick_1">
     <g id="line2d_1">
      <defs>
       <path id="m7703d67468" d="M 0 0 
L 0 3.5 
" style="stroke: #000000; stroke-width: 0.8"/>
      </defs>
      <g>
       <use xlink:href="#m7703d67468" x="56.325" y="192.24" style="stroke: #000000; stroke-width: 0.8"/>
      </g>
     </g>
     <g id="text_1">
      <!-- 1999 -->
      <g transform="translate(43.6 206.838437)scale(0.1 -0.1)">
       <defs>
        <path id="DejaVuSans-31" d="M 794 531 
L 1825 531 
L 1825 4091 
L 703 3866 
L 703 4441 
L 1819 4666 
L 2450 4666 
L 2450 531 
L 3481 531 
L 3481 0 
L 794 0 
L 794 531 
z
" transform="scale(0.015625)"/>
        <path id="DejaVuSans-39" d="M 703 97 
L 703 672 
Q 941 559 1184 500 
Q 1428 441 1663 441 
Q 2288 441 2617 861 
Q 2947 1281 2994 2138 
Q 2813 1869 2534 1725 
Q 2256 1581 1919 1581 
Q 1219 1581 811 2004 
Q 403 2428 403 3163 
Q 403 3881 828 4315 
Q 1253 4750 1959 4750 
Q 2769 4750 3195 4129 
Q 3622 3509 3622 2328 
Q 3622 1225 3098 567 
Q 2575 -91 1691 -91 
Q 1453 -91 1209 -44 
Q 966 3 703 97 
z
M 1959 2075 
Q 2384 2075 2632 2365 
Q 2881 2656 2881 3163 
Q 2881 3666 2632 3958 
Q 2384 4250 1959 4250 
Q 1534 4250 1286 3958 
Q 1038 3666 1038 3163 
Q 1038 2656 1286 2365 
Q 1534 2075 1959 2075 
z
" transform="scale(0.015625)"/>
       </defs>
       <use xlink:href="#DejaVuSans-31"/>
       <use xlink:href="#DejaVuSans-39" x="63.623047"/>
       <use xlink:href="#DejaVuSans-39" x="127.246094"/>
       <use xlink:href="#DejaVuSans-39" x="190.869141"/>
      </g>
     </g>
    </g>
    <g id="xtick_2">
     <g id="line2d_2">
      <g>
       <use xlink:href="#m7703d67468" x="126.075" y="192.24" style="stroke: #000000; stroke-width: 0.8"/>
      </g>
     </g>
     <g id="text_2">
      <!-- 2004 -->
      <g transform="translate(113.35 206.838437)scale(0.1 -0.1)">
       <defs>
        <path id="DejaVuSans-32" d="M 1228 531 
L 3431 531 
L 3431 0 
L 469 0 
L 469 531 
Q 828 903 1448 1529 
Q 2069 2156 2228 2338 
Q 2531 2678 2651 2914 
Q 2772 3150 2772 3378 
Q 2772 3750 2511 3984 
Q 2250 4219 1831 4219 
Q 1534 4219 1204 4116 
Q 875 4013 500 3803 
L 500 4441 
Q 881 4594 1212 4672 
Q 1544 4750 1819 4750 
Q 2544 4750 2975 4387 
Q 3406 4025 3406 3419 
Q 3406 3131 3298 2873 
Q 3191 2616 2906 2266 
Q 2828 2175 2409 1742 
Q 1991 1309 1228 531 
z
" transform="scale(0.015625)"/>
        <path id="DejaVuSans-30" d="M 2034 4250 
Q 1547 4250 1301 3770 
Q 1056 3291 1056 2328 
Q 1056 1369 1301 889 
Q 1547 409 2034 409 
Q 2525 409 2770 889 
Q 3016 1369 3016 2328 
Q 3016 3291 2770 3770 
Q 2525 4250 2034 4250 
z
M 2034 4750 
Q 2819 4750 3233 4129 
Q 3647 3509 3647 2328 
Q 3647 1150 3233 529 
Q 2819 -91 2034 -91 
Q 1250 -91 836 529 
Q 422 1150 422 2328 
Q 422 3509 836 4129 
Q 1250 4750 2034 4750 
z
" transform="scale(0.015625)"/>
        <path id="DejaVuSans-34" d="M 2419 4116 
L 825 1625 
L 2419 1625 
L 2419 4116 
z
M 2253 4666 
L 3047 4666 
L 3047 1625 
L 3713 1625 
L 3713 1100 
L 3047 1100 
L 3047 0 
L 2419 0 
L 2419 1100 
L 313 1100 
L 313 1709 
L 2253 4666 
z
" transform="scale(0.015625)"/>
       </defs>
       <use xlink:href="#DejaVuSans-32"/>
       <use xlink:href="#DejaVuSans-30" x="63.623047"/>
       <use xlink:href="#DejaVuSans-30" x="127.246094"/>
       <use xlink:href="#DejaVuSans-34" x="190.869141"/>
      </g>
     </g>
    </g>
    <g id="xtick_3">
     <g id="line2d_3">
      <g>
       <use xlink:href="#m7703d67468" x="195.825" y="192.24" style="stroke: #000000; stroke-width: 0.8"/>
      </g>
     </g>
     <g id="text_3">
      <!-- 2009 -->
      <g transform="translate(183.1 206.838437)scale(0.1 -0.1)">
       <use xlink:href="#DejaVuSans-32"/>
       <use xlink:href="#DejaVuSans-30" x="63.623047"/>
       <use xlink:href="#DejaVuSans-30" x="127.246094"/>
       <use xlink:href="#DejaVuSans-39" x="190.869141"/>
      </g>
     </g>
    </g>
    <g id="xtick_4">
     <g id="line2d_4">
      <g>
       <use xlink:href="#m7703d67468" x="265.575" y="192.24" style="stroke: #000000; stroke-width: 0.8"/>
      </g>
     </g>
     <g id="text_4">
      <!-- 2014 -->
      <g transform="translate(252.85 206.838437)scale(0.1 -0.1)">
       <use xlink:href="#DejaVuSans-32"/>
       <use xlink:href="#DejaVuSans-30" x="63.623047"/>
       <use xlink:href="#DejaVuSans-31" x="127.246094"/>
       <use xlink:href="#DejaVuSans-34" x="190.869141"/>
      </g>
     </g>
    </g>
    <g id="xtick_5">
     <g id="line2d_5">
      <g>
       <use xlink:href="#m7703d67468" x="335.325" y="192.24" style="stroke: #000000; stroke-width: 0.8"/>
      </g>
     </g>
     <g id="text_5">
      <!-- 2019 -->
      <g transform="translate(322.6 206.838437)scale(0.1 -0.1)">
       <use xlink:href="#DejaVuSans-32"/>
       <use xlink:href="#DejaVuSans-30" x="63.623047"/>
       <use xlink:href="#DejaVuSans-31" x="127.246094"/>
       <use xlink:href="#DejaVuSans-39" x="190.869141"/>
      </g>
     </g>
    </g>
    <g id="xtick_6">
     <g id="line2d_6">
      <defs>
       <path id="m6f6172be3a" d="M 0 0 
L 0 2 
" style="stroke: #000000; stroke-width: 0.6"/>
      </defs>
      <g>
       <use xlink:href="#m6f6172be3a" x="70.275" y="192.24" style="stroke: #000000; stroke-width: 0.6"/>
      </g>
     </g>
    </g>
    <g id="xtick_7">
     <g id="line2d_7">
      <g>
       <use xlink:href="#m6f6172be3a" x="84.225" y="192.24" style="stroke: #000000; stroke-width: 0.6"/>
      </g>
     </g>
    </g>
    <g id="xtick_8">
     <g id="line2d_8">
      <g>
       <use xlink:href="#m6f6172be3a" x="98.175" y="192.24" style="stroke: #000000; stroke-width: 0.6"/>
      </g>
     </g>
    </g>
    <g id="xtick_9">
     <g id="line2d_9">
      <g>
       <use xlink:href="#m6f6172be3a" x="112.125" y="192.24" style="stroke: #000000; stroke-width: 0.6"/>
      </g>
     </g>
    </g>
    <g id="xtick_10">
     <g id="line2d_10">
      <g>
       <use xlink:href="#m6f6172be3a" x="140.025" y="192.24" style="stroke: #000000; stroke-width: 0.6"/>
      </g>
     </g>
    </g>
    <g id="xtick_11">
     <g id="line2d_11">
      <g>
       <use xlink:href="#m6f6172be3a" x="153.975" y="192.24" style="stroke: #000000; stroke-width: 0.6"/>
      </g>
     </g>
    </g>
    <g id="xtick_12">
     <g id="line2d_12">
      <g>
       <use xlink:href="#m6f6172be3a" x="167.925" y="192.24" style="stroke: #000000; stroke-width: 0.6"/>
      </g>
     </g>
    </g>
    <g id="xtick_13">
     <g id="line2d_13">
      <g>
       <use xlink:href="#m6f6172be3a" x="181.875" y="192.24" style="stroke: #000000; stroke-width: 0.6"/>
      </g>
     </g>
    </g>
    <g id="xtick_14">
     <g id="line2d_14">
      <g>
       <use xlink:href="#m6f6172be3a" x="209.775" y="192.24" style="stroke: #000000; stroke-width: 0.6"/>
      </g>
     </g>
    </g>
    <g id="xtick_15">
     <g id="line2d_15">
      <g>
       <use xlink:href="#m6f6172be3a" x="223.725" y="192.24" style="stroke: #000000; stroke-width: 0.6"/>
      </g>
     </g>
    </g>
    <g id="xtick_16">
     <g id="line2d_16">
      <g>
       <use xlink:href="#m6f6172be3a" x="237.675" y="192.24" style="stroke: #000000; stroke-width: 0.6"/>
      </g>
     </g>
    </g>
    <g id="xtick_17">
     <g id="line2d_17">
      <g>
       <use xlink:href="#m6f6172be3a" x="251.625" y="192.24" style="stroke: #000000; stroke-width: 0.6"/>
      </g>
     </g>
    </g>
    <g id="xtick_18">
     <g id="line2d_18">
      <g>
       <use xlink:href="#m6f6172be3a" x="279.525" y="192.24" style="stroke: #000000; stroke-width: 0.6"/>
      </g>
     </g>
    </g>
    <g id="xtick_19">
     <g id="line2d_19">
      <g>
       <use xlink:href="#m6f6172be3a" x="293.475" y="192.24" style="stroke: #000000; stroke-width: 0.6"/>
      </g>
     </g>
    </g>
    <g id="xtick_20">
     <g id="line2d_20">
      <g>
       <use xlink:href="#m6f6172be3a" x="307.425" y="192.24" style="stroke: #000000; stroke-width: 0.6"/>
      </g>
     </g>
    </g>
    <g id="xtick_21">
     <g id="line2d_21">
      <g>
       <use xlink:href="#m6f6172be3a" x="321.375" y="192.24" style="stroke: #000000; stroke-width: 0.6"/>
      </g>
     </g>
    </g>
    <g id="xtick_22">
     <g id="line2d_22">
      <g>
       <use xlink:href="#m6f6172be3a" x="349.275" y="192.24" style="stroke: #000000; stroke-width: 0.6"/>
      </g>
     </g>
    </g>
    <g id="xtick_23">
     <g id="line2d_23">
      <g>
       <use xlink:href="#m6f6172be3a" x="363.225" y="192.24" style="stroke: #000000; stroke-width: 0.6"/>
      </g>
     </g>
    </g>
    <g id="xtick_24">
     <g id="line2d_24">
      <g>
       <use xlink:href="#m6f6172be3a" x="377.175" y="192.24" style="stroke: #000000; stroke-width: 0.6"/>
      </g>
     </g>
    </g>
    <g id="text_6">
     <!-- ticker -->
     <g transform="translate(207.455469 220.516562)scale(0.1 -0.1)">
      <defs>
       <path id="DejaVuSans-74" d="M 1172 4494 
L 1172 3500 
L 2356 3500 
L 2356 3053 
L 1172 3053 
L 1172 1153 
Q 1172 725 1289 603 
Q 1406 481 1766 481 
L 2356 481 
L 2356 0 
L 1766 0 
Q 1100 0 847 248 
Q 594 497 594 1153 
L 594 3053 
L 172 3053 
L 172 3500 
L 594 3500 
L 594 4494 
L 1172 4494 
z
" transform="scale(0.015625)"/>
       <path id="DejaVuSans-69" d="M 603 3500 
L 1178 3500 
L 1178 0 
L 603 0 
L 603 3500 
z
M 603 4863 
L 1178 4863 
L 1178 4134 
L 603 4134 
L 603 4863 
z
" transform="scale(0.015625)"/>
       <path id="DejaVuSans-63" d="M 3122 3366 
L 3122 2828 
Q 2878 2963 2633 3030 
Q 2388 3097 2138 3097 
Q 1578 3097 1268 2742 
Q 959 2388 959 1747 
Q 959 1106 1268 751 
Q 1578 397 2138 397 
Q 2388 397 2633 464 
Q 2878 531 3122 666 
L 3122 134 
Q 2881 22 2623 -34 
Q 2366 -91 2075 -91 
Q 1284 -91 818 406 
Q 353 903 353 1747 
Q 353 2603 823 3093 
Q 1294 3584 2113 3584 
Q 2378 3584 2631 3529 
Q 2884 3475 3122 3366 
z
" transform="scale(0.015625)"/>
       <path id="DejaVuSans-6b" d="M 581 4863 
L 1159 4863 
L 1159 1991 
L 2875 3500 
L 3609 3500 
L 1753 1863 
L 3688 0 
L 2938 0 
L 1159 1709 
L 1159 0 
L 581 0 
L 581 4863 
z
" transform="scale(0.015625)"/>
       <path id="DejaVuSans-65" d="M 3597 1894 
L 3597 1613 
L 953 1613 
Q 991 1019 1311 708 
Q 1631 397 2203 397 
Q 2534 397 2845 478 
Q 3156 559 3463 722 
L 3463 178 
Q 3153 47 2828 -22 
Q 2503 -91 2169 -91 
Q 1331 -91 842 396 
Q 353 884 353 1716 
Q 353 2575 817 3079 
Q 1281 3584 2069 3584 
Q 2775 3584 3186 3129 
Q 3597 2675 3597 1894 
z
M 3022 2063 
Q 3016 2534 2758 2815 
Q 2500 3097 2075 3097 
Q 1594 3097 1305 2825 
Q 1016 2553 972 2059 
L 3022 2063 
z
" transform="scale(0.015625)"/>
       <path id="DejaVuSans-72" d="M 2631 2963 
Q 2534 3019 2420 3045 
Q 2306 3072 2169 3072 
Q 1681 3072 1420 2755 
Q 1159 2438 1159 1844 
L 1159 0 
L 581 0 
L 581 3500 
L 1159 3500 
L 1159 2956 
Q 1341 3275 1631 3429 
Q 1922 3584 2338 3584 
Q 2397 3584 2469 3576 
Q 2541 3569 2628 3553 
L 2631 2963 
z
" transform="scale(0.015625)"/>
      </defs>
      <use xlink:href="#DejaVuSans-74"/>
      <use xlink:href="#DejaVuSans-69" x="39.208984"/>
      <use xlink:href="#DejaVuSans-63" x="66.992188"/>
      <use xlink:href="#DejaVuSans-6b" x="121.972656"/>
      <use xlink:href="#DejaVuSans-65" x="176.257812"/>
      <use xlink:href="#DejaVuSans-72" x="237.78125"/>
     </g>
    </g>
   </g>
   <g id="matplotlib.axis_2">
    <g id="ytick_1">
     <g id="line2d_25">
      <defs>
       <path id="m802bb5ef75" d="M 0 0 
L -3.5 0 
" style="stroke: #000000; stroke-width: 0.8"/>
      </defs>
      <g>
       <use xlink:href="#m802bb5ef75" x="54" y="184.845384" style="stroke: #000000; stroke-width: 0.8"/>
      </g>
     </g>
     <g id="text_7">
      <!-- 0 -->
      <g transform="translate(40.6375 188.644603)scale(0.1 -0.1)">
       <use xlink:href="#DejaVuSans-30"/>
      </g>
     </g>
    </g>
    <g id="ytick_2">
     <g id="line2d_26">
      <g>
       <use xlink:href="#m802bb5ef75" x="54" y="147.487686" style="stroke: #000000; stroke-width: 0.8"/>
      </g>
     </g>
     <g id="text_8">
      <!-- 2 -->
      <g transform="translate(40.6375 151.286905)scale(0.1 -0.1)">
       <use xlink:href="#DejaVuSans-32"/>
      </g>
     </g>
    </g>
    <g id="ytick_3">
     <g id="line2d_27">
      <g>
       <use xlink:href="#m802bb5ef75" x="54" y="110.129988" style="stroke: #000000; stroke-width: 0.8"/>
      </g>
     </g>
     <g id="text_9">
      <!-- 4 -->
      <g transform="translate(40.6375 113.929207)scale(0.1 -0.1)">
       <use xlink:href="#DejaVuSans-34"/>
      </g>
     </g>
    </g>
    <g id="ytick_4">
     <g id="line2d_28">
      <g>
       <use xlink:href="#m802bb5ef75" x="54" y="72.772291" style="stroke: #000000; stroke-width: 0.8"/>
      </g>
     </g>
     <g id="text_10">
      <!-- 6 -->
      <g transform="translate(40.6375 76.571509)scale(0.1 -0.1)">
       <defs>
        <path id="DejaVuSans-36" d="M 2113 2584 
Q 1688 2584 1439 2293 
Q 1191 2003 1191 1497 
Q 1191 994 1439 701 
Q 1688 409 2113 409 
Q 2538 409 2786 701 
Q 3034 994 3034 1497 
Q 3034 2003 2786 2293 
Q 2538 2584 2113 2584 
z
M 3366 4563 
L 3366 3988 
Q 3128 4100 2886 4159 
Q 2644 4219 2406 4219 
Q 1781 4219 1451 3797 
Q 1122 3375 1075 2522 
Q 1259 2794 1537 2939 
Q 1816 3084 2150 3084 
Q 2853 3084 3261 2657 
Q 3669 2231 3669 1497 
Q 3669 778 3244 343 
Q 2819 -91 2113 -91 
Q 1303 -91 875 529 
Q 447 1150 447 2328 
Q 447 3434 972 4092 
Q 1497 4750 2381 4750 
Q 2619 4750 2861 4703 
Q 3103 4656 3366 4563 
z
" transform="scale(0.015625)"/>
       </defs>
       <use xlink:href="#DejaVuSans-36"/>
      </g>
     </g>
    </g>
    <g id="ytick_5">
     <g id="line2d_29">
      <g>
       <use xlink:href="#m802bb5ef75" x="54" y="35.414593" style="stroke: #000000; stroke-width: 0.8"/>
      </g>
     </g>
     <g id="text_11">
      <!-- 8 -->
      <g transform="translate(40.6375 39.213811)scale(0.1 -0.1)">
       <defs>
        <path id="DejaVuSans-38" d="M 2034 2216 
Q 1584 2216 1326 1975 
Q 1069 1734 1069 1313 
Q 1069 891 1326 650 
Q 1584 409 2034 409 
Q 2484 409 2743 651 
Q 3003 894 3003 1313 
Q 3003 1734 2745 1975 
Q 2488 2216 2034 2216 
z
M 1403 2484 
Q 997 2584 770 2862 
Q 544 3141 544 3541 
Q 544 4100 942 4425 
Q 1341 4750 2034 4750 
Q 2731 4750 3128 4425 
Q 3525 4100 3525 3541 
Q 3525 3141 3298 2862 
Q 3072 2584 2669 2484 
Q 3125 2378 3379 2068 
Q 3634 1759 3634 1313 
Q 3634 634 3220 271 
Q 2806 -91 2034 -91 
Q 1263 -91 848 271 
Q 434 634 434 1313 
Q 434 1759 690 2068 
Q 947 2378 1403 2484 
z
M 1172 3481 
Q 1172 3119 1398 2916 
Q 1625 2713 2034 2713 
Q 2441 2713 2670 2916 
Q 2900 3119 2900 3481 
Q 2900 3844 2670 4047 
Q 2441 4250 2034 4250 
Q 1625 4250 1398 4047 
Q 1172 3844 1172 3481 
z
" transform="scale(0.015625)"/>
       </defs>
       <use xlink:href="#DejaVuSans-38"/>
      </g>
     </g>
    </g>
    <g id="text_12">
     <!-- Total wealth -->
     <g transform="translate(34.557812 139.093281)rotate(-90)scale(0.1 -0.1)">
      <defs>
       <path id="DejaVuSans-54" d="M -19 4666 
L 3928 4666 
L 3928 4134 
L 2272 4134 
L 2272 0 
L 1638 0 
L 1638 4134 
L -19 4134 
L -19 4666 
z
" transform="scale(0.015625)"/>
       <path id="DejaVuSans-6f" d="M 1959 3097 
Q 1497 3097 1228 2736 
Q 959 2375 959 1747 
Q 959 1119 1226 758 
Q 1494 397 1959 397 
Q 2419 397 2687 759 
Q 2956 1122 2956 1747 
Q 2956 2369 2687 2733 
Q 2419 3097 1959 3097 
z
M 1959 3584 
Q 2709 3584 3137 3096 
Q 3566 2609 3566 1747 
Q 3566 888 3137 398 
Q 2709 -91 1959 -91 
Q 1206 -91 779 398 
Q 353 888 353 1747 
Q 353 2609 779 3096 
Q 1206 3584 1959 3584 
z
" transform="scale(0.015625)"/>
       <path id="DejaVuSans-61" d="M 2194 1759 
Q 1497 1759 1228 1600 
Q 959 1441 959 1056 
Q 959 750 1161 570 
Q 1363 391 1709 391 
Q 2188 391 2477 730 
Q 2766 1069 2766 1631 
L 2766 1759 
L 2194 1759 
z
M 3341 1997 
L 3341 0 
L 2766 0 
L 2766 531 
Q 2569 213 2275 61 
Q 1981 -91 1556 -91 
Q 1019 -91 701 211 
Q 384 513 384 1019 
Q 384 1609 779 1909 
Q 1175 2209 1959 2209 
L 2766 2209 
L 2766 2266 
Q 2766 2663 2505 2880 
Q 2244 3097 1772 3097 
Q 1472 3097 1187 3025 
Q 903 2953 641 2809 
L 641 3341 
Q 956 3463 1253 3523 
Q 1550 3584 1831 3584 
Q 2591 3584 2966 3190 
Q 3341 2797 3341 1997 
z
" transform="scale(0.015625)"/>
       <path id="DejaVuSans-6c" d="M 603 4863 
L 1178 4863 
L 1178 0 
L 603 0 
L 603 4863 
z
" transform="scale(0.015625)"/>
       <path id="DejaVuSans-20" transform="scale(0.015625)"/>
       <path id="DejaVuSans-77" d="M 269 3500 
L 844 3500 
L 1563 769 
L 2278 3500 
L 2956 3500 
L 3675 769 
L 4391 3500 
L 4966 3500 
L 4050 0 
L 3372 0 
L 2619 2869 
L 1863 0 
L 1184 0 
L 269 3500 
z
" transform="scale(0.015625)"/>
       <path id="DejaVuSans-68" d="M 3513 2113 
L 3513 0 
L 2938 0 
L 2938 2094 
Q 2938 2591 2744 2837 
Q 2550 3084 2163 3084 
Q 1697 3084 1428 2787 
Q 1159 2491 1159 1978 
L 1159 0 
L 581 0 
L 581 4863 
L 1159 4863 
L 1159 2956 
Q 1366 3272 1645 3428 
Q 1925 3584 2291 3584 
Q 2894 3584 3203 3211 
Q 3513 2838 3513 2113 
z
" transform="scale(0.015625)"/>
      </defs>
      <use xlink:href="#DejaVuSans-54"/>
      <use xlink:href="#DejaVuSans-6f" x="44.083984"/>
      <use xlink:href="#DejaVuSans-74" x="105.265625"/>
      <use xlink:href="#DejaVuSans-61" x="144.474609"/>
      <use xlink:href="#DejaVuSans-6c" x="205.753906"/>
      <use xlink:href="#DejaVuSans-20" x="233.537109"/>
      <use xlink:href="#DejaVuSans-77" x="265.324219"/>
      <use xlink:href="#DejaVuSans-65" x="347.111328"/>
      <use xlink:href="#DejaVuSans-61" x="408.634766"/>
      <use xlink:href="#DejaVuSans-6c" x="469.914062"/>
      <use xlink:href="#DejaVuSans-74" x="497.697266"/>
      <use xlink:href="#DejaVuSans-68" x="536.90625"/>
     </g>
    </g>
    <g id="text_13">
     <!-- 1e7 -->
     <g transform="translate(54 22.92)scale(0.1 -0.1)">
      <defs>
       <path id="DejaVuSans-37" d="M 525 4666 
L 3525 4666 
L 3525 4397 
L 1831 0 
L 1172 0 
L 2766 4134 
L 525 4134 
L 525 4666 
z
" transform="scale(0.015625)"/>
      </defs>
      <use xlink:href="#DejaVuSans-31"/>
      <use xlink:href="#DejaVuSans-65" x="63.623047"/>
      <use xlink:href="#DejaVuSans-37" x="125.146484"/>
     </g>
    </g>
   </g>
   <g id="line2d_30">
    <path d="M 54 184.658596 
L 59.8125 184.593002 
L 67.95 184.516146 
L 72.6 184.436324 
L 100.5 183.976791 
L 102.825 183.92627 
L 107.475 184.029328 
L 109.8 183.968427 
L 114.45 184.019077 
L 123.75 183.503613 
L 124.9125 183.342425 
L 126.075 183.314704 
L 127.2375 183.076146 
L 128.4 183.038337 
L 129.5625 183.360471 
L 130.725 183.290311 
L 131.8875 183.095109 
L 136.5375 183.121671 
L 137.7 182.7026 
L 141.1875 181.988974 
L 142.35 182.144339 
L 143.5125 182.426706 
L 148.1625 181.647166 
L 149.325 181.29749 
L 150.4875 181.397333 
L 151.65 181.270289 
L 152.8125 181.005992 
L 153.975 180.611251 
L 155.1375 180.988278 
L 157.4625 180.856694 
L 158.625 181.130974 
L 159.7875 180.971555 
L 162.1125 181.123031 
L 165.6 181.049059 
L 167.925 179.897479 
L 169.0875 179.838421 
L 170.25 178.964811 
L 172.575 178.254533 
L 173.7375 178.149433 
L 174.9 178.861403 
L 176.0625 178.892139 
L 178.3875 178.5681 
L 179.55 178.916778 
L 180.7125 178.867008 
L 181.875 179.38983 
L 186.525 179.009194 
L 187.6875 179.739211 
L 188.85 179.447518 
L 190.0125 178.685064 
L 191.175 178.984058 
L 192.3375 179.827462 
L 194.6625 180.588799 
L 195.825 180.5699 
L 196.9875 181.310537 
L 198.15 180.746638 
L 199.3125 179.59207 
L 200.475 179.008928 
L 201.6375 178.626968 
L 202.8 177.991227 
L 203.9625 177.648742 
L 205.125 177.179936 
L 206.2875 177.653188 
L 207.45 177.229368 
L 208.6125 175.614466 
L 209.775 174.697538 
L 210.9375 173.084103 
L 212.1 172.711443 
L 213.2625 171.950061 
L 214.425 173.469908 
L 215.5875 174.200359 
L 216.75 173.959962 
L 217.9125 174.722717 
L 219.075 173.665023 
L 220.2375 173.062177 
L 221.4 173.325183 
L 222.5625 170.235999 
L 223.725 171.442762 
L 224.8875 171.71956 
L 228.375 173.537805 
L 229.5375 172.98872 
L 230.7 173.064473 
L 231.8625 173.290363 
L 233.025 174.429265 
L 234.1875 173.069168 
L 235.35 172.74049 
L 236.5125 172.75384 
L 237.675 172.150536 
L 238.8375 171.313537 
L 241.1625 170.898815 
L 242.325 171.688698 
L 244.65 170.60606 
L 245.8125 169.582985 
L 246.975 169.446301 
L 248.1375 169.611974 
L 249.3 168.800592 
L 250.4625 168.17659 
L 251.625 166.919129 
L 252.7875 166.252101 
L 253.95 164.95069 
L 255.1125 164.518725 
L 258.6 162.187046 
L 259.7625 162.303099 
L 260.925 158.279993 
L 262.0875 157.357643 
L 263.25 154.912905 
L 264.4125 155.090759 
L 265.575 153.76199 
L 266.7375 151.400962 
L 267.9 152.901503 
L 270.225 148.855163 
L 271.3875 145.789803 
L 272.55 148.703113 
L 273.7125 147.476368 
L 274.875 147.851594 
L 276.0375 148.385584 
L 277.2 147.053605 
L 278.3625 142.203721 
L 279.525 145.221412 
L 280.6875 140.877393 
L 281.85 140.932303 
L 283.0125 141.743048 
L 284.175 140.651948 
L 285.3375 141.849327 
L 286.5 141.175192 
L 287.6625 142.703681 
L 288.825 146.244538 
L 289.9875 142.212713 
L 291.15 142.50147 
L 292.3125 142.231531 
L 293.475 142.158727 
L 294.6375 141.889496 
L 295.8 139.290651 
L 296.9625 139.447797 
L 298.125 140.042819 
L 299.2875 136.328864 
L 300.45 135.223328 
L 301.6125 136.359154 
L 302.775 136.672213 
L 303.9375 138.114634 
L 305.1 138.069882 
L 306.2625 133.861006 
L 307.425 136.754849 
L 308.5875 133.535008 
L 309.75 133.316616 
L 310.9125 132.779022 
L 312.075 135.384387 
L 313.2375 135.606145 
L 314.4 135.256364 
L 315.5625 132.96473 
L 316.725 125.500852 
L 317.8875 119.01914 
L 319.05 117.244114 
L 320.2125 118.344798 
L 321.375 117.359497 
L 322.5375 120.966734 
L 323.7 120.776913 
L 324.8625 119.468306 
L 326.025 112.099222 
L 327.1875 111.542052 
L 328.35 112.888634 
L 329.5125 109.468307 
L 330.675 112.254296 
L 331.8375 118.17655 
L 333 117.883782 
L 334.1625 125.20788 
L 335.325 118.696884 
L 336.4875 114.509053 
L 337.65 114.523321 
L 338.8125 111.315283 
L 339.975 114.043872 
L 341.1375 110.62772 
L 342.3 109.946919 
L 343.4625 109.735639 
L 344.625 104.198296 
L 345.7875 106.638814 
L 346.95 105.205053 
L 348.1125 94.850219 
L 349.275 96.403406 
L 350.4375 103.126603 
L 351.6 112.607126 
L 352.7625 104.56134 
L 353.925 102.27651 
L 355.0875 103.479888 
L 356.25 98.301043 
L 357.4125 94.708706 
L 358.575 97.452539 
L 359.7375 98.736032 
L 360.9 93.916228 
L 362.0625 80.096045 
L 363.225 70.437144 
L 364.3875 62.750738 
L 365.55 67.971616 
L 366.7125 73.972073 
L 367.875 77.974132 
L 369.0375 62.874533 
L 370.2 62.118013 
L 371.3625 56.739114 
L 372.525 66.656968 
L 373.6875 44.981117 
L 374.85 33.48 
L 376.0125 38.504385 
L 377.175 47.216717 
L 378.3375 48.07236 
L 379.5 47.422831 
L 380.6625 50.205821 
L 381.825 47.54363 
L 382.9875 65.721236 
L 384.15 54.720536 
L 385.3125 54.33931 
L 386.475 70.511263 
L 387.6375 59.24812 
L 388.8 50.511238 
L 388.8 50.511238 
" clip-path="url(#p6ada4f9eae)" style="fill: none; stroke: #1f77b4; stroke-width: 1.5; stroke-linecap: square"/>
   </g>
   <g id="line2d_31">
    <path d="M 54 184.658596 
L 56.325 184.604501 
L 58.65 184.635204 
L 60.975 184.587717 
L 65.625 184.475141 
L 69.1125 184.244141 
L 71.4375 184.175075 
L 72.6 184.051153 
L 73.7625 184.119868 
L 74.925 184.354144 
L 76.0875 184.232737 
L 77.25 184.2511 
L 78.4125 184.132617 
L 79.575 184.544207 
L 83.0625 184.671345 
L 84.225 184.592512 
L 86.55 184.587249 
L 90.0375 184.573448 
L 93.525 184.663976 
L 102.825 184.572863 
L 106.3125 184.672865 
L 119.1 184.598828 
L 136.5375 184.232503 
L 137.7 184.061153 
L 138.8625 184.092148 
L 141.1875 183.796 
L 145.8375 183.984309 
L 153.975 183.079023 
L 156.3 183.378212 
L 157.4625 183.198792 
L 158.625 183.447219 
L 159.7875 183.5057 
L 160.95 183.255635 
L 162.1125 183.258209 
L 163.275 183.044636 
L 164.4375 182.948727 
L 165.6 182.701235 
L 166.7625 182.860771 
L 169.0875 182.866152 
L 171.4125 182.510821 
L 172.575 182.010433 
L 173.7375 181.990573 
L 177.225 181.255349 
L 178.3875 180.401994 
L 179.55 180.582817 
L 180.7125 180.211813 
L 181.875 181.678986 
L 183.0375 181.920864 
L 184.2 181.488572 
L 185.3625 180.776273 
L 186.525 180.430065 
L 187.6875 180.928557 
L 188.85 181.127159 
L 190.0125 180.879667 
L 191.175 182.186602 
L 192.3375 182.328594 
L 193.5 182.677609 
L 194.6625 182.848841 
L 195.825 182.737025 
L 196.9875 182.756207 
L 200.475 181.66846 
L 201.6375 181.513602 
L 202.8 181.023297 
L 203.9625 180.910545 
L 205.125 180.509599 
L 206.2875 180.435913 
L 208.6125 179.915853 
L 209.775 180.352566 
L 210.9375 180.058827 
L 213.2625 178.737857 
L 215.5875 178.961489 
L 216.75 178.827684 
L 217.9125 179.158687 
L 219.075 178.207785 
L 220.2375 177.804733 
L 222.5625 177.299925 
L 224.8875 176.582947 
L 226.05 176.69295 
L 228.375 176.708798 
L 229.5375 176.99325 
L 230.7 175.711111 
L 233.025 175.925386 
L 234.1875 175.3766 
L 235.35 175.904801 
L 236.5125 175.371454 
L 237.675 174.167212 
L 238.8375 172.156399 
L 240 170.820458 
L 241.1625 171.184678 
L 242.325 171.33088 
L 243.4875 171.18421 
L 244.65 170.558229 
L 245.8125 169.217375 
L 246.975 169.173562 
L 248.1375 170.859955 
L 249.3 171.03052 
L 250.4625 172.284052 
L 251.625 174.094064 
L 252.7875 174.367675 
L 255.1125 174.334918 
L 256.275 174.09854 
L 257.4375 175.369924 
L 258.6 174.031751 
L 259.7625 173.12587 
L 260.925 173.37762 
L 262.0875 172.272288 
L 263.25 171.391338 
L 264.4125 171.271573 
L 265.575 172.733428 
L 266.7375 172.0373 
L 267.9 171.781742 
L 269.0625 170.483263 
L 270.225 169.352678 
L 272.55 168.466665 
L 273.7125 167.19716 
L 274.875 167.498471 
L 276.0375 166.250182 
L 277.2 164.27974 
L 278.3625 165.758225 
L 279.525 164.585812 
L 280.6875 162.544744 
L 281.85 163.244351 
L 283.0125 163.119359 
L 284.175 162.134902 
L 286.5 163.700301 
L 287.6625 165.100218 
L 288.825 165.592271 
L 289.9875 163.91999 
L 291.15 164.041037 
L 292.3125 166.334263 
L 293.475 167.727082 
L 294.6375 167.749858 
L 295.8 165.575125 
L 296.9625 168.271441 
L 298.125 167.081443 
L 299.2875 167.839248 
L 300.45 166.307628 
L 301.6125 165.869802 
L 302.775 164.626821 
L 303.9375 164.539186 
L 305.1 164.976719 
L 307.425 163.029762 
L 308.5875 160.112083 
L 309.75 158.907826 
L 310.9125 158.909632 
L 312.075 157.151971 
L 313.2375 158.73642 
L 314.4 157.882558 
L 315.5625 154.993711 
L 316.725 156.792093 
L 317.8875 154.076318 
L 319.05 153.452013 
L 320.2125 153.930632 
L 321.375 154.259454 
L 322.5375 152.175554 
L 323.7 154.072062 
L 324.8625 154.534267 
L 326.025 150.438003 
L 327.1875 150.762063 
L 328.35 149.808297 
L 329.5125 142.785652 
L 330.675 143.134872 
L 331.8375 144.406105 
L 333 151.733203 
L 334.1625 155.597341 
L 335.325 153.984193 
L 336.4875 152.602497 
L 337.65 149.474108 
L 338.8125 147.477899 
L 339.975 152.11766 
L 341.1375 147.846063 
L 342.3 145.019519 
L 343.4625 145.673869 
L 344.625 142.815854 
L 345.7875 138.163837 
L 346.95 134.545209 
L 348.1125 129.576361 
L 349.275 126.591288 
L 350.4375 133.271431 
L 351.6 136.869307 
L 352.7625 129.415082 
L 353.925 124.702063 
L 355.0875 115.837762 
L 356.25 104.442424 
L 357.4125 87.025508 
L 358.575 97.054623 
L 359.7375 102.32313 
L 360.9 94.44264 
L 362.0625 84.084862 
L 363.225 84.639201 
L 364.3875 92.62641 
L 365.55 91.949559 
L 366.7125 84.869247 
L 367.875 89.918598 
L 369.0375 80.510479 
L 370.2 73.730538 
L 371.3625 69.008526 
L 372.525 76.889674 
L 373.6875 70.55729 
L 374.85 58.548351 
L 376.0125 49.17349 
L 377.175 51.305182 
L 378.3375 58.524878 
L 379.5 51.264815 
L 380.6625 64.239596 
L 381.825 70.81293 
L 382.9875 80.098561 
L 384.15 60.33978 
L 385.3125 64.225119 
L 386.475 78.817394 
L 387.6375 67.201881 
L 388.8 71.086987 
L 388.8 71.086987 
" clip-path="url(#p6ada4f9eae)" style="fill: none; stroke: #ff7f0e; stroke-width: 1.5; stroke-linecap: square"/>
   </g>
   <g id="patch_3">
    <path d="M 54 192.24 
L 54 25.92 
" style="fill: none; stroke: #000000; stroke-width: 0.8; stroke-linejoin: miter; stroke-linecap: square"/>
   </g>
   <g id="patch_4">
    <path d="M 388.8 192.24 
L 388.8 25.92 
" style="fill: none; stroke: #000000; stroke-width: 0.8; stroke-linejoin: miter; stroke-linecap: square"/>
   </g>
   <g id="patch_5">
    <path d="M 54 192.24 
L 388.8 192.24 
" style="fill: none; stroke: #000000; stroke-width: 0.8; stroke-linejoin: miter; stroke-linecap: square"/>
   </g>
   <g id="patch_6">
    <path d="M 54 25.92 
L 388.8 25.92 
" style="fill: none; stroke: #000000; stroke-width: 0.8; stroke-linejoin: miter; stroke-linecap: square"/>
   </g>
   <g id="text_14">
    <!-- Portfolio wealth evolution -->
    <g transform="translate(144.93375 19.92)scale(0.12 -0.12)">
     <defs>
      <path id="DejaVuSans-50" d="M 1259 4147 
L 1259 2394 
L 2053 2394 
Q 2494 2394 2734 2622 
Q 2975 2850 2975 3272 
Q 2975 3691 2734 3919 
Q 2494 4147 2053 4147 
L 1259 4147 
z
M 628 4666 
L 2053 4666 
Q 2838 4666 3239 4311 
Q 3641 3956 3641 3272 
Q 3641 2581 3239 2228 
Q 2838 1875 2053 1875 
L 1259 1875 
L 1259 0 
L 628 0 
L 628 4666 
z
" transform="scale(0.015625)"/>
      <path id="DejaVuSans-66" d="M 2375 4863 
L 2375 4384 
L 1825 4384 
Q 1516 4384 1395 4259 
Q 1275 4134 1275 3809 
L 1275 3500 
L 2222 3500 
L 2222 3053 
L 1275 3053 
L 1275 0 
L 697 0 
L 697 3053 
L 147 3053 
L 147 3500 
L 697 3500 
L 697 3744 
Q 697 4328 969 4595 
Q 1241 4863 1831 4863 
L 2375 4863 
z
" transform="scale(0.015625)"/>
      <path id="DejaVuSans-76" d="M 191 3500 
L 800 3500 
L 1894 563 
L 2988 3500 
L 3597 3500 
L 2284 0 
L 1503 0 
L 191 3500 
z
" transform="scale(0.015625)"/>
      <path id="DejaVuSans-75" d="M 544 1381 
L 544 3500 
L 1119 3500 
L 1119 1403 
Q 1119 906 1312 657 
Q 1506 409 1894 409 
Q 2359 409 2629 706 
Q 2900 1003 2900 1516 
L 2900 3500 
L 3475 3500 
L 3475 0 
L 2900 0 
L 2900 538 
Q 2691 219 2414 64 
Q 2138 -91 1772 -91 
Q 1169 -91 856 284 
Q 544 659 544 1381 
z
M 1991 3584 
L 1991 3584 
z
" transform="scale(0.015625)"/>
      <path id="DejaVuSans-6e" d="M 3513 2113 
L 3513 0 
L 2938 0 
L 2938 2094 
Q 2938 2591 2744 2837 
Q 2550 3084 2163 3084 
Q 1697 3084 1428 2787 
Q 1159 2491 1159 1978 
L 1159 0 
L 581 0 
L 581 3500 
L 1159 3500 
L 1159 2956 
Q 1366 3272 1645 3428 
Q 1925 3584 2291 3584 
Q 2894 3584 3203 3211 
Q 3513 2838 3513 2113 
z
" transform="scale(0.015625)"/>
     </defs>
     <use xlink:href="#DejaVuSans-50"/>
     <use xlink:href="#DejaVuSans-6f" x="56.677734"/>
     <use xlink:href="#DejaVuSans-72" x="117.859375"/>
     <use xlink:href="#DejaVuSans-74" x="158.972656"/>
     <use xlink:href="#DejaVuSans-66" x="198.181641"/>
     <use xlink:href="#DejaVuSans-6f" x="233.386719"/>
     <use xlink:href="#DejaVuSans-6c" x="294.568359"/>
     <use xlink:href="#DejaVuSans-69" x="322.351562"/>
     <use xlink:href="#DejaVuSans-6f" x="350.134766"/>
     <use xlink:href="#DejaVuSans-20" x="411.316406"/>
     <use xlink:href="#DejaVuSans-77" x="443.103516"/>
     <use xlink:href="#DejaVuSans-65" x="524.890625"/>
     <use xlink:href="#DejaVuSans-61" x="586.414062"/>
     <use xlink:href="#DejaVuSans-6c" x="647.693359"/>
     <use xlink:href="#DejaVuSans-74" x="675.476562"/>
     <use xlink:href="#DejaVuSans-68" x="714.685547"/>
     <use xlink:href="#DejaVuSans-20" x="778.064453"/>
     <use xlink:href="#DejaVuSans-65" x="809.851562"/>
     <use xlink:href="#DejaVuSans-76" x="871.375"/>
     <use xlink:href="#DejaVuSans-6f" x="930.554688"/>
     <use xlink:href="#DejaVuSans-6c" x="991.736328"/>
     <use xlink:href="#DejaVuSans-75" x="1019.519531"/>
     <use xlink:href="#DejaVuSans-74" x="1082.898438"/>
     <use xlink:href="#DejaVuSans-69" x="1122.107422"/>
     <use xlink:href="#DejaVuSans-6f" x="1149.890625"/>
     <use xlink:href="#DejaVuSans-6e" x="1211.072266"/>
    </g>
   </g>
   <g id="legend_1">
    <g id="patch_7">
     <path d="M 61 63.27625 
L 135.848437 63.27625 
Q 137.848437 63.27625 137.848437 61.27625 
L 137.848437 32.92 
Q 137.848437 30.92 135.848437 30.92 
L 61 30.92 
Q 59 30.92 59 32.92 
L 59 61.27625 
Q 59 63.27625 61 63.27625 
z
" style="fill: #ffffff; opacity: 0.8; stroke: #cccccc; stroke-linejoin: miter"/>
    </g>
    <g id="line2d_32">
     <path d="M 63 39.018437 
L 73 39.018437 
L 83 39.018437 
" style="fill: none; stroke: #1f77b4; stroke-width: 1.5; stroke-linecap: square"/>
    </g>
    <g id="text_15">
     <!-- Strategy -->
     <g transform="translate(91 42.518437)scale(0.1 -0.1)">
      <defs>
       <path id="DejaVuSans-53" d="M 3425 4513 
L 3425 3897 
Q 3066 4069 2747 4153 
Q 2428 4238 2131 4238 
Q 1616 4238 1336 4038 
Q 1056 3838 1056 3469 
Q 1056 3159 1242 3001 
Q 1428 2844 1947 2747 
L 2328 2669 
Q 3034 2534 3370 2195 
Q 3706 1856 3706 1288 
Q 3706 609 3251 259 
Q 2797 -91 1919 -91 
Q 1588 -91 1214 -16 
Q 841 59 441 206 
L 441 856 
Q 825 641 1194 531 
Q 1563 422 1919 422 
Q 2459 422 2753 634 
Q 3047 847 3047 1241 
Q 3047 1584 2836 1778 
Q 2625 1972 2144 2069 
L 1759 2144 
Q 1053 2284 737 2584 
Q 422 2884 422 3419 
Q 422 4038 858 4394 
Q 1294 4750 2059 4750 
Q 2388 4750 2728 4690 
Q 3069 4631 3425 4513 
z
" transform="scale(0.015625)"/>
       <path id="DejaVuSans-67" d="M 2906 1791 
Q 2906 2416 2648 2759 
Q 2391 3103 1925 3103 
Q 1463 3103 1205 2759 
Q 947 2416 947 1791 
Q 947 1169 1205 825 
Q 1463 481 1925 481 
Q 2391 481 2648 825 
Q 2906 1169 2906 1791 
z
M 3481 434 
Q 3481 -459 3084 -895 
Q 2688 -1331 1869 -1331 
Q 1566 -1331 1297 -1286 
Q 1028 -1241 775 -1147 
L 775 -588 
Q 1028 -725 1275 -790 
Q 1522 -856 1778 -856 
Q 2344 -856 2625 -561 
Q 2906 -266 2906 331 
L 2906 616 
Q 2728 306 2450 153 
Q 2172 0 1784 0 
Q 1141 0 747 490 
Q 353 981 353 1791 
Q 353 2603 747 3093 
Q 1141 3584 1784 3584 
Q 2172 3584 2450 3431 
Q 2728 3278 2906 2969 
L 2906 3500 
L 3481 3500 
L 3481 434 
z
" transform="scale(0.015625)"/>
       <path id="DejaVuSans-79" d="M 2059 -325 
Q 1816 -950 1584 -1140 
Q 1353 -1331 966 -1331 
L 506 -1331 
L 506 -850 
L 844 -850 
Q 1081 -850 1212 -737 
Q 1344 -625 1503 -206 
L 1606 56 
L 191 3500 
L 800 3500 
L 1894 763 
L 2988 3500 
L 3597 3500 
L 2059 -325 
z
" transform="scale(0.015625)"/>
      </defs>
      <use xlink:href="#DejaVuSans-53"/>
      <use xlink:href="#DejaVuSans-74" x="63.476562"/>
      <use xlink:href="#DejaVuSans-72" x="102.685547"/>
      <use xlink:href="#DejaVuSans-61" x="143.798828"/>
      <use xlink:href="#DejaVuSans-74" x="205.078125"/>
      <use xlink:href="#DejaVuSans-65" x="244.287109"/>
      <use xlink:href="#DejaVuSans-67" x="305.810547"/>
      <use xlink:href="#DejaVuSans-79" x="369.287109"/>
     </g>
    </g>
    <g id="line2d_33">
     <path d="M 63 53.696562 
L 73 53.696562 
L 83 53.696562 
" style="fill: none; stroke: #ff7f0e; stroke-width: 1.5; stroke-linecap: square"/>
    </g>
    <g id="text_16">
     <!-- AAPL -->
     <g transform="translate(91 57.196562)scale(0.1 -0.1)">
      <defs>
       <path id="DejaVuSans-41" d="M 2188 4044 
L 1331 1722 
L 3047 1722 
L 2188 4044 
z
M 1831 4666 
L 2547 4666 
L 4325 0 
L 3669 0 
L 3244 1197 
L 1141 1197 
L 716 0 
L 50 0 
L 1831 4666 
z
" transform="scale(0.015625)"/>
       <path id="DejaVuSans-4c" d="M 628 4666 
L 1259 4666 
L 1259 531 
L 3531 531 
L 3531 0 
L 628 0 
L 628 4666 
z
" transform="scale(0.015625)"/>
      </defs>
      <use xlink:href="#DejaVuSans-41"/>
      <use xlink:href="#DejaVuSans-41" x="71.158203"/>
      <use xlink:href="#DejaVuSans-50" x="139.566406"/>
      <use xlink:href="#DejaVuSans-4c" x="199.869141"/>
     </g>
    </g>
   </g>
  </g>
 </g>
 <defs>
  <clipPath id="p6ada4f9eae">
   <rect x="54" y="25.92" width="334.8" height="166.32"/>
  </clipPath>
 </defs>
</svg>
