<?xml version="1.0" encoding="utf-8" standalone="no"?>
<!DOCTYPE svg PUBLIC "-//W3C//DTD SVG 1.1//EN"
  "http://www.w3.org/Graphics/SVG/1.1/DTD/svg11.dtd">
<svg xmlns:xlink="http://www.w3.org/1999/xlink" width="432pt" height="216pt" viewBox="0 0 432 216" xmlns="http://www.w3.org/2000/svg" version="1.1">
 <metadata>
  <rdf:RDF xmlns:dc="http://purl.org/dc/elements/1.1/" xmlns:cc="http://creativecommons.org/ns#" xmlns:rdf="http://www.w3.org/1999/02/22-rdf-syntax-ns#">
   <cc:Work>
    <dc:type rdf:resource="http://purl.org/dc/dcmitype/StillImage"/>
    <dc:date>2024-02-20T14:46:44.929410</dc:date>
    <dc:format>image/svg+xml</dc:format>
    <dc:creator>
     <cc:Agent>
      <dc:title>Matplotlib v3.5.2, https://matplotlib.org/</dc:title>
     </cc:Agent>
    </dc:creator>
   </cc:Work>
  </rdf:RDF>
 </metadata>
 <defs>
  <style type="text/css">*{stroke-linejoin: round; stroke-linecap: butt}</style>
 </defs>
 <g id="figure_1">
  <g id="patch_1">
   <path d="M 0 216 
L 432 216 
L 432 0 
L 0 0 
z
" style="fill: #ffffff"/>
  </g>
  <g id="axes_1">
   <g id="patch_2">
    <path d="M 49.682 168.926 
L 421.2 168.926 
L 421.2 26.9925 
L 49.682 26.9925 
z
" style="fill: #ffffff"/>
   </g>
   <g id="matplotlib.axis_1">
    <g id="xtick_1">
     <g id="line2d_1">
      <defs>
       <path id="m24d1615ad1" d="M 0 0 
L 0 3.5 
" style="stroke: #000000; stroke-width: 0.8"/>
      </defs>
      <g>
       <use xlink:href="#m24d1615ad1" x="79.773706" y="168.926" style="stroke: #000000; stroke-width: 0.8"/>
      </g>
     </g>
     <g id="text_1">
      <!-- 0.06 -->
      <g transform="translate(68.640894 183.524437)scale(0.1 -0.1)">
       <defs>
        <path id="DejaVuSans-30" d="M 2034 4250 
Q 1547 4250 1301 3770 
Q 1056 3291 1056 2328 
Q 1056 1369 1301 889 
Q 1547 409 2034 409 
Q 2525 409 2770 889 
Q 3016 1369 3016 2328 
Q 3016 3291 2770 3770 
Q 2525 4250 2034 4250 
z
M 2034 4750 
Q 2819 4750 3233 4129 
Q 3647 3509 3647 2328 
Q 3647 1150 3233 529 
Q 2819 -91 2034 -91 
Q 1250 -91 836 529 
Q 422 1150 422 2328 
Q 422 3509 836 4129 
Q 1250 4750 2034 4750 
z
" transform="scale(0.015625)"/>
        <path id="DejaVuSans-2e" d="M 684 794 
L 1344 794 
L 1344 0 
L 684 0 
L 684 794 
z
" transform="scale(0.015625)"/>
        <path id="DejaVuSans-36" d="M 2113 2584 
Q 1688 2584 1439 2293 
Q 1191 2003 1191 1497 
Q 1191 994 1439 701 
Q 1688 409 2113 409 
Q 2538 409 2786 701 
Q 3034 994 3034 1497 
Q 3034 2003 2786 2293 
Q 2538 2584 2113 2584 
z
M 3366 4563 
L 3366 3988 
Q 3128 4100 2886 4159 
Q 2644 4219 2406 4219 
Q 1781 4219 1451 3797 
Q 1122 3375 1075 2522 
Q 1259 2794 1537 2939 
Q 1816 3084 2150 3084 
Q 2853 3084 3261 2657 
Q 3669 2231 3669 1497 
Q 3669 778 3244 343 
Q 2819 -91 2113 -91 
Q 1303 -91 875 529 
Q 447 1150 447 2328 
Q 447 3434 972 4092 
Q 1497 4750 2381 4750 
Q 2619 4750 2861 4703 
Q 3103 4656 3366 4563 
z
" transform="scale(0.015625)"/>
       </defs>
       <use xlink:href="#DejaVuSans-30"/>
       <use xlink:href="#DejaVuSans-2e" x="63.623047"/>
       <use xlink:href="#DejaVuSans-30" x="95.410156"/>
       <use xlink:href="#DejaVuSans-36" x="159.033203"/>
      </g>
     </g>
    </g>
    <g id="xtick_2">
     <g id="line2d_2">
      <g>
       <use xlink:href="#m24d1615ad1" x="123.336367" y="168.926" style="stroke: #000000; stroke-width: 0.8"/>
      </g>
     </g>
     <g id="text_2">
      <!-- 0.08 -->
      <g transform="translate(112.203555 183.524437)scale(0.1 -0.1)">
       <defs>
        <path id="DejaVuSans-38" d="M 2034 2216 
Q 1584 2216 1326 1975 
Q 1069 1734 1069 1313 
Q 1069 891 1326 650 
Q 1584 409 2034 409 
Q 2484 409 2743 651 
Q 3003 894 3003 1313 
Q 3003 1734 2745 1975 
Q 2488 2216 2034 2216 
z
M 1403 2484 
Q 997 2584 770 2862 
Q 544 3141 544 3541 
Q 544 4100 942 4425 
Q 1341 4750 2034 4750 
Q 2731 4750 3128 4425 
Q 3525 4100 3525 3541 
Q 3525 3141 3298 2862 
Q 3072 2584 2669 2484 
Q 3125 2378 3379 2068 
Q 3634 1759 3634 1313 
Q 3634 634 3220 271 
Q 2806 -91 2034 -91 
Q 1263 -91 848 271 
Q 434 634 434 1313 
Q 434 1759 690 2068 
Q 947 2378 1403 2484 
z
M 1172 3481 
Q 1172 3119 1398 2916 
Q 1625 2713 2034 2713 
Q 2441 2713 2670 2916 
Q 2900 3119 2900 3481 
Q 2900 3844 2670 4047 
Q 2441 4250 2034 4250 
Q 1625 4250 1398 4047 
Q 1172 3844 1172 3481 
z
" transform="scale(0.015625)"/>
       </defs>
       <use xlink:href="#DejaVuSans-30"/>
       <use xlink:href="#DejaVuSans-2e" x="63.623047"/>
       <use xlink:href="#DejaVuSans-30" x="95.410156"/>
       <use xlink:href="#DejaVuSans-38" x="159.033203"/>
      </g>
     </g>
    </g>
    <g id="xtick_3">
     <g id="line2d_3">
      <g>
       <use xlink:href="#m24d1615ad1" x="166.899028" y="168.926" style="stroke: #000000; stroke-width: 0.8"/>
      </g>
     </g>
     <g id="text_3">
      <!-- 0.10 -->
      <g transform="translate(155.766216 183.524437)scale(0.1 -0.1)">
       <defs>
        <path id="DejaVuSans-31" d="M 794 531 
L 1825 531 
L 1825 4091 
L 703 3866 
L 703 4441 
L 1819 4666 
L 2450 4666 
L 2450 531 
L 3481 531 
L 3481 0 
L 794 0 
L 794 531 
z
" transform="scale(0.015625)"/>
       </defs>
       <use xlink:href="#DejaVuSans-30"/>
       <use xlink:href="#DejaVuSans-2e" x="63.623047"/>
       <use xlink:href="#DejaVuSans-31" x="95.410156"/>
       <use xlink:href="#DejaVuSans-30" x="159.033203"/>
      </g>
     </g>
    </g>
    <g id="xtick_4">
     <g id="line2d_4">
      <g>
       <use xlink:href="#m24d1615ad1" x="210.46169" y="168.926" style="stroke: #000000; stroke-width: 0.8"/>
      </g>
     </g>
     <g id="text_4">
      <!-- 0.12 -->
      <g transform="translate(199.328877 183.524437)scale(0.1 -0.1)">
       <defs>
        <path id="DejaVuSans-32" d="M 1228 531 
L 3431 531 
L 3431 0 
L 469 0 
L 469 531 
Q 828 903 1448 1529 
Q 2069 2156 2228 2338 
Q 2531 2678 2651 2914 
Q 2772 3150 2772 3378 
Q 2772 3750 2511 3984 
Q 2250 4219 1831 4219 
Q 1534 4219 1204 4116 
Q 875 4013 500 3803 
L 500 4441 
Q 881 4594 1212 4672 
Q 1544 4750 1819 4750 
Q 2544 4750 2975 4387 
Q 3406 4025 3406 3419 
Q 3406 3131 3298 2873 
Q 3191 2616 2906 2266 
Q 2828 2175 2409 1742 
Q 1991 1309 1228 531 
z
" transform="scale(0.015625)"/>
       </defs>
       <use xlink:href="#DejaVuSans-30"/>
       <use xlink:href="#DejaVuSans-2e" x="63.623047"/>
       <use xlink:href="#DejaVuSans-31" x="95.410156"/>
       <use xlink:href="#DejaVuSans-32" x="159.033203"/>
      </g>
     </g>
    </g>
    <g id="xtick_5">
     <g id="line2d_5">
      <g>
       <use xlink:href="#m24d1615ad1" x="254.024351" y="168.926" style="stroke: #000000; stroke-width: 0.8"/>
      </g>
     </g>
     <g id="text_5">
      <!-- 0.14 -->
      <g transform="translate(242.891538 183.524437)scale(0.1 -0.1)">
       <defs>
        <path id="DejaVuSans-34" d="M 2419 4116 
L 825 1625 
L 2419 1625 
L 2419 4116 
z
M 2253 4666 
L 3047 4666 
L 3047 1625 
L 3713 1625 
L 3713 1100 
L 3047 1100 
L 3047 0 
L 2419 0 
L 2419 1100 
L 313 1100 
L 313 1709 
L 2253 4666 
z
" transform="scale(0.015625)"/>
       </defs>
       <use xlink:href="#DejaVuSans-30"/>
       <use xlink:href="#DejaVuSans-2e" x="63.623047"/>
       <use xlink:href="#DejaVuSans-31" x="95.410156"/>
       <use xlink:href="#DejaVuSans-34" x="159.033203"/>
      </g>
     </g>
    </g>
    <g id="xtick_6">
     <g id="line2d_6">
      <g>
       <use xlink:href="#m24d1615ad1" x="297.587012" y="168.926" style="stroke: #000000; stroke-width: 0.8"/>
      </g>
     </g>
     <g id="text_6">
      <!-- 0.16 -->
      <g transform="translate(286.454199 183.524437)scale(0.1 -0.1)">
       <use xlink:href="#DejaVuSans-30"/>
       <use xlink:href="#DejaVuSans-2e" x="63.623047"/>
       <use xlink:href="#DejaVuSans-31" x="95.410156"/>
       <use xlink:href="#DejaVuSans-36" x="159.033203"/>
      </g>
     </g>
    </g>
    <g id="xtick_7">
     <g id="line2d_7">
      <g>
       <use xlink:href="#m24d1615ad1" x="341.149673" y="168.926" style="stroke: #000000; stroke-width: 0.8"/>
      </g>
     </g>
     <g id="text_7">
      <!-- 0.18 -->
      <g transform="translate(330.016861 183.524437)scale(0.1 -0.1)">
       <use xlink:href="#DejaVuSans-30"/>
       <use xlink:href="#DejaVuSans-2e" x="63.623047"/>
       <use xlink:href="#DejaVuSans-31" x="95.410156"/>
       <use xlink:href="#DejaVuSans-38" x="159.033203"/>
      </g>
     </g>
    </g>
    <g id="xtick_8">
     <g id="line2d_8">
      <g>
       <use xlink:href="#m24d1615ad1" x="384.712334" y="168.926" style="stroke: #000000; stroke-width: 0.8"/>
      </g>
     </g>
     <g id="text_8">
      <!-- 0.20 -->
      <g transform="translate(373.579522 183.524437)scale(0.1 -0.1)">
       <use xlink:href="#DejaVuSans-30"/>
       <use xlink:href="#DejaVuSans-2e" x="63.623047"/>
       <use xlink:href="#DejaVuSans-32" x="95.410156"/>
       <use xlink:href="#DejaVuSans-30" x="159.033203"/>
      </g>
     </g>
    </g>
    <g id="text_9">
     <!-- $\sqrt{\bf{x}^{\intercal} \bf{\Sigma} \bf{x}}$ -->
     <g transform="translate(218.791 200.024437)scale(0.1 -0.1)">
      <defs>
       <path id="STIXSizeOneSym-Regular-221a" d="M 6970 9933 
L 3373 -1888 
L 3104 -1888 
L 1626 2918 
Q 1555 3149 1465 3251 
Q 1376 3354 1229 3354 
Q 1011 3354 794 3181 
L 717 3309 
L 1766 4115 
L 1926 4115 
L 3379 -602 
L 3405 -602 
L 6605 9933 
L 6970 9933 
z
" transform="scale(0.015625)"/>
       <path id="DejaVuSans-Bold-78" d="M 1422 1791 
L 159 3500 
L 1344 3500 
L 2059 2463 
L 2784 3500 
L 3969 3500 
L 2706 1797 
L 4031 0 
L 2847 0 
L 2059 1106 
L 1281 0 
L 97 0 
L 1422 1791 
z
" transform="scale(0.015625)"/>
       <path id="DejaVuSans-Bold-22ba" d="M 1400 3838 
L 400 3838 
L 400 4513 
L 3072 4513 
L 3072 3838 
L 2075 3838 
L 2075 0 
L 1400 0 
L 1400 3838 
z
" transform="scale(0.015625)"/>
       <path id="DejaVuSans-Bold-3a3" d="M 1684 909 
L 3903 909 
L 3903 0 
L 588 0 
L 588 1003 
L 2075 2481 
L 588 3703 
L 588 4666 
L 3834 4666 
L 3834 3756 
L 1738 3756 
L 3278 2494 
L 1684 909 
z
" transform="scale(0.015625)"/>
      </defs>
      <use xlink:href="#STIXSizeOneSym-Regular-221a" transform="translate(0 19.109375)scale(0.643693)"/>
      <use xlink:href="#DejaVuSans-Bold-78" transform="translate(80.527847 0.107812)"/>
      <use xlink:href="#DejaVuSans-Bold-22ba" transform="translate(145.986832 38.389062)scale(0.7)"/>
      <use xlink:href="#DejaVuSans-Bold-3a3" transform="translate(186.694839 0.107812)"/>
      <use xlink:href="#DejaVuSans-Bold-78" transform="translate(255.005386 0.107812)"/>
      <path d="M 68.027847 112.5 
L 68.027847 118.75 
L 332.007339 118.75 
L 332.007339 112.5 
L 68.027847 112.5 
z
"/>
     </g>
    </g>
   </g>
   <g id="matplotlib.axis_2">
    <g id="ytick_1">
     <g id="line2d_9">
      <defs>
       <path id="m1c82362a4d" d="M 0 0 
L -3.5 0 
" style="stroke: #000000; stroke-width: 0.8"/>
      </defs>
      <g>
       <use xlink:href="#m1c82362a4d" x="49.682" y="155.871467" style="stroke: #000000; stroke-width: 0.8"/>
      </g>
     </g>
     <g id="text_10">
      <!-- 0.0 -->
      <g transform="translate(26.778875 159.670686)scale(0.1 -0.1)">
       <use xlink:href="#DejaVuSans-30"/>
       <use xlink:href="#DejaVuSans-2e" x="63.623047"/>
       <use xlink:href="#DejaVuSans-30" x="95.410156"/>
      </g>
     </g>
    </g>
    <g id="ytick_2">
     <g id="line2d_10">
      <g>
       <use xlink:href="#m1c82362a4d" x="49.682" y="126.907293" style="stroke: #000000; stroke-width: 0.8"/>
      </g>
     </g>
     <g id="text_11">
      <!-- 0.1 -->
      <g transform="translate(26.778875 130.706511)scale(0.1 -0.1)">
       <use xlink:href="#DejaVuSans-30"/>
       <use xlink:href="#DejaVuSans-2e" x="63.623047"/>
       <use xlink:href="#DejaVuSans-31" x="95.410156"/>
      </g>
     </g>
    </g>
    <g id="ytick_3">
     <g id="line2d_11">
      <g>
       <use xlink:href="#m1c82362a4d" x="49.682" y="97.943118" style="stroke: #000000; stroke-width: 0.8"/>
      </g>
     </g>
     <g id="text_12">
      <!-- 0.2 -->
      <g transform="translate(26.778875 101.742336)scale(0.1 -0.1)">
       <use xlink:href="#DejaVuSans-30"/>
       <use xlink:href="#DejaVuSans-2e" x="63.623047"/>
       <use xlink:href="#DejaVuSans-32" x="95.410156"/>
      </g>
     </g>
    </g>
    <g id="ytick_4">
     <g id="line2d_12">
      <g>
       <use xlink:href="#m1c82362a4d" x="49.682" y="68.978943" style="stroke: #000000; stroke-width: 0.8"/>
      </g>
     </g>
     <g id="text_13">
      <!-- 0.3 -->
      <g transform="translate(26.778875 72.778162)scale(0.1 -0.1)">
       <defs>
        <path id="DejaVuSans-33" d="M 2597 2516 
Q 3050 2419 3304 2112 
Q 3559 1806 3559 1356 
Q 3559 666 3084 287 
Q 2609 -91 1734 -91 
Q 1441 -91 1130 -33 
Q 819 25 488 141 
L 488 750 
Q 750 597 1062 519 
Q 1375 441 1716 441 
Q 2309 441 2620 675 
Q 2931 909 2931 1356 
Q 2931 1769 2642 2001 
Q 2353 2234 1838 2234 
L 1294 2234 
L 1294 2753 
L 1863 2753 
Q 2328 2753 2575 2939 
Q 2822 3125 2822 3475 
Q 2822 3834 2567 4026 
Q 2313 4219 1838 4219 
Q 1578 4219 1281 4162 
Q 984 4106 628 3988 
L 628 4550 
Q 988 4650 1302 4700 
Q 1616 4750 1894 4750 
Q 2613 4750 3031 4423 
Q 3450 4097 3450 3541 
Q 3450 3153 3228 2886 
Q 3006 2619 2597 2516 
z
" transform="scale(0.015625)"/>
       </defs>
       <use xlink:href="#DejaVuSans-30"/>
       <use xlink:href="#DejaVuSans-2e" x="63.623047"/>
       <use xlink:href="#DejaVuSans-33" x="95.410156"/>
      </g>
     </g>
    </g>
    <g id="ytick_5">
     <g id="line2d_13">
      <g>
       <use xlink:href="#m1c82362a4d" x="49.682" y="40.014768" style="stroke: #000000; stroke-width: 0.8"/>
      </g>
     </g>
     <g id="text_14">
      <!-- 0.4 -->
      <g transform="translate(26.778875 43.813987)scale(0.1 -0.1)">
       <use xlink:href="#DejaVuSans-30"/>
       <use xlink:href="#DejaVuSans-2e" x="63.623047"/>
       <use xlink:href="#DejaVuSans-34" x="95.410156"/>
      </g>
     </g>
    </g>
    <g id="text_15">
     <!-- $\bf{r}^{\intercal} \bf{x}$ -->
     <g transform="translate(20.699188 105.75925)rotate(-90)scale(0.1 -0.1)">
      <defs>
       <path id="DejaVuSans-Bold-72" d="M 3138 2547 
Q 2991 2616 2845 2648 
Q 2700 2681 2553 2681 
Q 2122 2681 1889 2404 
Q 1656 2128 1656 1613 
L 1656 0 
L 538 0 
L 538 3500 
L 1656 3500 
L 1656 2925 
Q 1872 3269 2151 3426 
Q 2431 3584 2822 3584 
Q 2878 3584 2943 3579 
Q 3009 3575 3134 3559 
L 3138 2547 
z
" transform="scale(0.015625)"/>
      </defs>
      <use xlink:href="#DejaVuSans-Bold-72" transform="translate(0 0.357812)"/>
      <use xlink:href="#DejaVuSans-Bold-22ba" transform="translate(50.273438 38.639062)scale(0.7)"/>
      <use xlink:href="#DejaVuSans-Bold-78" transform="translate(90.981445 0.357812)"/>
     </g>
    </g>
   </g>
   <g id="line2d_14">
    <path d="M 66.569182 162.474477 
L 68.687784 148.13776 
L 74.34754 133.801043 
L 83.352478 119.464326 
L 96.827881 105.127609 
L 114.610819 90.790891 
L 136.288769 76.454174 
L 162.405335 62.117457 
L 193.506116 47.78074 
L 230.592816 33.444023 
" clip-path="url(#p0806f3f435)" style="fill: none; stroke: #648fff; stroke-width: 1.5; stroke-linecap: square"/>
    <defs>
     <path id="m36cbf00aaf" d="M 0 3 
C 0.795609 3 1.55874 2.683901 2.12132 2.12132 
C 2.683901 1.55874 3 0.795609 3 0 
C 3 -0.795609 2.683901 -1.55874 2.12132 -2.12132 
C 1.55874 -2.683901 0.795609 -3 0 -3 
C -0.795609 -3 -1.55874 -2.683901 -2.12132 -2.12132 
C -2.683901 -1.55874 -3 -0.795609 -3 0 
C -3 0.795609 -2.683901 1.55874 -2.12132 2.12132 
C -1.55874 2.683901 -0.795609 3 0 3 
z
" style="stroke: #648fff"/>
    </defs>
    <g clip-path="url(#p0806f3f435)">
     <use xlink:href="#m36cbf00aaf" x="66.569182" y="162.474477" style="fill: #648fff; stroke: #648fff"/>
     <use xlink:href="#m36cbf00aaf" x="68.687784" y="148.13776" style="fill: #648fff; stroke: #648fff"/>
     <use xlink:href="#m36cbf00aaf" x="74.34754" y="133.801043" style="fill: #648fff; stroke: #648fff"/>
     <use xlink:href="#m36cbf00aaf" x="83.352478" y="119.464326" style="fill: #648fff; stroke: #648fff"/>
     <use xlink:href="#m36cbf00aaf" x="96.827881" y="105.127609" style="fill: #648fff; stroke: #648fff"/>
     <use xlink:href="#m36cbf00aaf" x="114.610819" y="90.790891" style="fill: #648fff; stroke: #648fff"/>
     <use xlink:href="#m36cbf00aaf" x="136.288769" y="76.454174" style="fill: #648fff; stroke: #648fff"/>
     <use xlink:href="#m36cbf00aaf" x="162.405335" y="62.117457" style="fill: #648fff; stroke: #648fff"/>
     <use xlink:href="#m36cbf00aaf" x="193.506116" y="47.78074" style="fill: #648fff; stroke: #648fff"/>
     <use xlink:href="#m36cbf00aaf" x="230.592816" y="33.444023" style="fill: #648fff; stroke: #648fff"/>
    </g>
   </g>
   <g id="line2d_15">
    <path d="M 70.282461 162.474477 
L 72.795808 148.13776 
L 78.123417 133.801043 
L 86.488225 119.464326 
L 100.709468 105.127609 
L 118.735032 90.790891 
L 139.048937 76.454174 
L 164.458956 62.117457 
L 194.777842 47.78074 
L 231.405582 33.444023 
" clip-path="url(#p0806f3f435)" style="fill: none; stroke: #fe6100; stroke-width: 1.5; stroke-linecap: square"/>
    <defs>
     <path id="mc80666d0ab" d="M 0 3 
C 0.795609 3 1.55874 2.683901 2.12132 2.12132 
C 2.683901 1.55874 3 0.795609 3 0 
C 3 -0.795609 2.683901 -1.55874 2.12132 -2.12132 
C 1.55874 -2.683901 0.795609 -3 0 -3 
C -0.795609 -3 -1.55874 -2.683901 -2.12132 -2.12132 
C -2.683901 -1.55874 -3 -0.795609 -3 0 
C -3 0.795609 -2.683901 1.55874 -2.12132 2.12132 
C -1.55874 2.683901 -0.795609 3 0 3 
z
" style="stroke: #fe6100"/>
    </defs>
    <g clip-path="url(#p0806f3f435)">
     <use xlink:href="#mc80666d0ab" x="70.282461" y="162.474477" style="fill: #fe6100; stroke: #fe6100"/>
     <use xlink:href="#mc80666d0ab" x="72.795808" y="148.13776" style="fill: #fe6100; stroke: #fe6100"/>
     <use xlink:href="#mc80666d0ab" x="78.123417" y="133.801043" style="fill: #fe6100; stroke: #fe6100"/>
     <use xlink:href="#mc80666d0ab" x="86.488225" y="119.464326" style="fill: #fe6100; stroke: #fe6100"/>
     <use xlink:href="#mc80666d0ab" x="100.709468" y="105.127609" style="fill: #fe6100; stroke: #fe6100"/>
     <use xlink:href="#mc80666d0ab" x="118.735032" y="90.790891" style="fill: #fe6100; stroke: #fe6100"/>
     <use xlink:href="#mc80666d0ab" x="139.048937" y="76.454174" style="fill: #fe6100; stroke: #fe6100"/>
     <use xlink:href="#mc80666d0ab" x="164.458956" y="62.117457" style="fill: #fe6100; stroke: #fe6100"/>
     <use xlink:href="#mc80666d0ab" x="194.777842" y="47.78074" style="fill: #fe6100; stroke: #fe6100"/>
     <use xlink:href="#mc80666d0ab" x="231.405582" y="33.444023" style="fill: #fe6100; stroke: #fe6100"/>
    </g>
   </g>
   <g id="line2d_16">
    <path d="M 70.282358 162.474477 
L 72.795787 148.13776 
L 78.123408 133.801043 
L 93.994042 119.464326 
L 106.081548 105.127609 
L 143.695443 90.790891 
L 146.336292 76.454174 
L 182.521402 62.117457 
L 225.880261 47.78074 
L 248.2549 33.444023 
" clip-path="url(#p0806f3f435)" style="fill: none; stroke: #785ef0; stroke-width: 1.5; stroke-linecap: square"/>
    <defs>
     <path id="m6dcfbe7d37" d="M 0 3 
C 0.795609 3 1.55874 2.683901 2.12132 2.12132 
C 2.683901 1.55874 3 0.795609 3 0 
C 3 -0.795609 2.683901 -1.55874 2.12132 -2.12132 
C 1.55874 -2.683901 0.795609 -3 0 -3 
C -0.795609 -3 -1.55874 -2.683901 -2.12132 -2.12132 
C -2.683901 -1.55874 -3 -0.795609 -3 0 
C -3 0.795609 -2.683901 1.55874 -2.12132 2.12132 
C -1.55874 2.683901 -0.795609 3 0 3 
z
" style="stroke: #785ef0"/>
    </defs>
    <g clip-path="url(#p0806f3f435)">
     <use xlink:href="#m6dcfbe7d37" x="70.282358" y="162.474477" style="fill: #785ef0; stroke: #785ef0"/>
     <use xlink:href="#m6dcfbe7d37" x="72.795787" y="148.13776" style="fill: #785ef0; stroke: #785ef0"/>
     <use xlink:href="#m6dcfbe7d37" x="78.123408" y="133.801043" style="fill: #785ef0; stroke: #785ef0"/>
     <use xlink:href="#m6dcfbe7d37" x="93.994042" y="119.464326" style="fill: #785ef0; stroke: #785ef0"/>
     <use xlink:href="#m6dcfbe7d37" x="106.081548" y="105.127609" style="fill: #785ef0; stroke: #785ef0"/>
     <use xlink:href="#m6dcfbe7d37" x="143.695443" y="90.790891" style="fill: #785ef0; stroke: #785ef0"/>
     <use xlink:href="#m6dcfbe7d37" x="146.336292" y="76.454174" style="fill: #785ef0; stroke: #785ef0"/>
     <use xlink:href="#m6dcfbe7d37" x="182.521402" y="62.117457" style="fill: #785ef0; stroke: #785ef0"/>
     <use xlink:href="#m6dcfbe7d37" x="225.880261" y="47.78074" style="fill: #785ef0; stroke: #785ef0"/>
     <use xlink:href="#m6dcfbe7d37" x="248.2549" y="33.444023" style="fill: #785ef0; stroke: #785ef0"/>
    </g>
   </g>
   <g id="line2d_17">
    <path d="M 144.509591 162.474477 
L 148.562241 148.13776 
L 157.152753 133.801043 
L 170.640601 119.464326 
L 193.571666 105.127609 
L 222.637014 90.790891 
L 255.392201 76.454174 
L 296.364626 62.117457 
L 345.252361 47.78074 
L 404.312818 33.444023 
" clip-path="url(#p0806f3f435)" style="fill: none; stroke: #ffb000; stroke-width: 1.5; stroke-linecap: square"/>
    <defs>
     <path id="me2d1ec2128" d="M 0 1.5 
C 0.397805 1.5 0.77937 1.341951 1.06066 1.06066 
C 1.341951 0.77937 1.5 0.397805 1.5 0 
C 1.5 -0.397805 1.341951 -0.77937 1.06066 -1.06066 
C 0.77937 -1.341951 0.397805 -1.5 0 -1.5 
C -0.397805 -1.5 -0.77937 -1.341951 -1.06066 -1.06066 
C -1.341951 -0.77937 -1.5 -0.397805 -1.5 0 
C -1.5 0.397805 -1.341951 0.77937 -1.06066 1.06066 
C -0.77937 1.341951 -0.397805 1.5 0 1.5 
z
" style="stroke: #ffb000"/>
    </defs>
    <g clip-path="url(#p0806f3f435)">
     <use xlink:href="#me2d1ec2128" x="144.509591" y="162.474477" style="fill: #ffb000; stroke: #ffb000"/>
     <use xlink:href="#me2d1ec2128" x="148.562241" y="148.13776" style="fill: #ffb000; stroke: #ffb000"/>
     <use xlink:href="#me2d1ec2128" x="157.152753" y="133.801043" style="fill: #ffb000; stroke: #ffb000"/>
     <use xlink:href="#me2d1ec2128" x="170.640601" y="119.464326" style="fill: #ffb000; stroke: #ffb000"/>
     <use xlink:href="#me2d1ec2128" x="193.571666" y="105.127609" style="fill: #ffb000; stroke: #ffb000"/>
     <use xlink:href="#me2d1ec2128" x="222.637014" y="90.790891" style="fill: #ffb000; stroke: #ffb000"/>
     <use xlink:href="#me2d1ec2128" x="255.392201" y="76.454174" style="fill: #ffb000; stroke: #ffb000"/>
     <use xlink:href="#me2d1ec2128" x="296.364626" y="62.117457" style="fill: #ffb000; stroke: #ffb000"/>
     <use xlink:href="#me2d1ec2128" x="345.252361" y="47.78074" style="fill: #ffb000; stroke: #ffb000"/>
     <use xlink:href="#me2d1ec2128" x="404.312818" y="33.444023" style="fill: #ffb000; stroke: #ffb000"/>
    </g>
   </g>
   <g id="patch_3">
    <path d="M 49.682 168.926 
L 49.682 26.9925 
" style="fill: none; stroke: #000000; stroke-width: 0.8; stroke-linejoin: miter; stroke-linecap: square"/>
   </g>
   <g id="patch_4">
    <path d="M 421.2 168.926 
L 421.2 26.9925 
" style="fill: none; stroke: #000000; stroke-width: 0.8; stroke-linejoin: miter; stroke-linecap: square"/>
   </g>
   <g id="patch_5">
    <path d="M 49.682 168.926 
L 421.2 168.926 
" style="fill: none; stroke: #000000; stroke-width: 0.8; stroke-linejoin: miter; stroke-linecap: square"/>
   </g>
   <g id="patch_6">
    <path d="M 49.682 26.9925 
L 421.2 26.9925 
" style="fill: none; stroke: #000000; stroke-width: 0.8; stroke-linejoin: miter; stroke-linecap: square"/>
   </g>
   <g id="text_16">
    <!-- Efficient Frontier $K = \lfloor 0.06N \rfloor$ $\kappa = 160.0\%$ -->
    <g transform="translate(114.001 20.9925)scale(0.12 -0.12)">
     <defs>
      <path id="DejaVuSans-45" d="M 628 4666 
L 3578 4666 
L 3578 4134 
L 1259 4134 
L 1259 2753 
L 3481 2753 
L 3481 2222 
L 1259 2222 
L 1259 531 
L 3634 531 
L 3634 0 
L 628 0 
L 628 4666 
z
" transform="scale(0.015625)"/>
      <path id="DejaVuSans-66" d="M 2375 4863 
L 2375 4384 
L 1825 4384 
Q 1516 4384 1395 4259 
Q 1275 4134 1275 3809 
L 1275 3500 
L 2222 3500 
L 2222 3053 
L 1275 3053 
L 1275 0 
L 697 0 
L 697 3053 
L 147 3053 
L 147 3500 
L 697 3500 
L 697 3744 
Q 697 4328 969 4595 
Q 1241 4863 1831 4863 
L 2375 4863 
z
" transform="scale(0.015625)"/>
      <path id="DejaVuSans-69" d="M 603 3500 
L 1178 3500 
L 1178 0 
L 603 0 
L 603 3500 
z
M 603 4863 
L 1178 4863 
L 1178 4134 
L 603 4134 
L 603 4863 
z
" transform="scale(0.015625)"/>
      <path id="DejaVuSans-63" d="M 3122 3366 
L 3122 2828 
Q 2878 2963 2633 3030 
Q 2388 3097 2138 3097 
Q 1578 3097 1268 2742 
Q 959 2388 959 1747 
Q 959 1106 1268 751 
Q 1578 397 2138 397 
Q 2388 397 2633 464 
Q 2878 531 3122 666 
L 3122 134 
Q 2881 22 2623 -34 
Q 2366 -91 2075 -91 
Q 1284 -91 818 406 
Q 353 903 353 1747 
Q 353 2603 823 3093 
Q 1294 3584 2113 3584 
Q 2378 3584 2631 3529 
Q 2884 3475 3122 3366 
z
" transform="scale(0.015625)"/>
      <path id="DejaVuSans-65" d="M 3597 1894 
L 3597 1613 
L 953 1613 
Q 991 1019 1311 708 
Q 1631 397 2203 397 
Q 2534 397 2845 478 
Q 3156 559 3463 722 
L 3463 178 
Q 3153 47 2828 -22 
Q 2503 -91 2169 -91 
Q 1331 -91 842 396 
Q 353 884 353 1716 
Q 353 2575 817 3079 
Q 1281 3584 2069 3584 
Q 2775 3584 3186 3129 
Q 3597 2675 3597 1894 
z
M 3022 2063 
Q 3016 2534 2758 2815 
Q 2500 3097 2075 3097 
Q 1594 3097 1305 2825 
Q 1016 2553 972 2059 
L 3022 2063 
z
" transform="scale(0.015625)"/>
      <path id="DejaVuSans-6e" d="M 3513 2113 
L 3513 0 
L 2938 0 
L 2938 2094 
Q 2938 2591 2744 2837 
Q 2550 3084 2163 3084 
Q 1697 3084 1428 2787 
Q 1159 2491 1159 1978 
L 1159 0 
L 581 0 
L 581 3500 
L 1159 3500 
L 1159 2956 
Q 1366 3272 1645 3428 
Q 1925 3584 2291 3584 
Q 2894 3584 3203 3211 
Q 3513 2838 3513 2113 
z
" transform="scale(0.015625)"/>
      <path id="DejaVuSans-74" d="M 1172 4494 
L 1172 3500 
L 2356 3500 
L 2356 3053 
L 1172 3053 
L 1172 1153 
Q 1172 725 1289 603 
Q 1406 481 1766 481 
L 2356 481 
L 2356 0 
L 1766 0 
Q 1100 0 847 248 
Q 594 497 594 1153 
L 594 3053 
L 172 3053 
L 172 3500 
L 594 3500 
L 594 4494 
L 1172 4494 
z
" transform="scale(0.015625)"/>
      <path id="DejaVuSans-20" transform="scale(0.015625)"/>
      <path id="DejaVuSans-46" d="M 628 4666 
L 3309 4666 
L 3309 4134 
L 1259 4134 
L 1259 2759 
L 3109 2759 
L 3109 2228 
L 1259 2228 
L 1259 0 
L 628 0 
L 628 4666 
z
" transform="scale(0.015625)"/>
      <path id="DejaVuSans-72" d="M 2631 2963 
Q 2534 3019 2420 3045 
Q 2306 3072 2169 3072 
Q 1681 3072 1420 2755 
Q 1159 2438 1159 1844 
L 1159 0 
L 581 0 
L 581 3500 
L 1159 3500 
L 1159 2956 
Q 1341 3275 1631 3429 
Q 1922 3584 2338 3584 
Q 2397 3584 2469 3576 
Q 2541 3569 2628 3553 
L 2631 2963 
z
" transform="scale(0.015625)"/>
      <path id="DejaVuSans-6f" d="M 1959 3097 
Q 1497 3097 1228 2736 
Q 959 2375 959 1747 
Q 959 1119 1226 758 
Q 1494 397 1959 397 
Q 2419 397 2687 759 
Q 2956 1122 2956 1747 
Q 2956 2369 2687 2733 
Q 2419 3097 1959 3097 
z
M 1959 3584 
Q 2709 3584 3137 3096 
Q 3566 2609 3566 1747 
Q 3566 888 3137 398 
Q 2709 -91 1959 -91 
Q 1206 -91 779 398 
Q 353 888 353 1747 
Q 353 2609 779 3096 
Q 1206 3584 1959 3584 
z
" transform="scale(0.015625)"/>
      <path id="DejaVuSans-Oblique-4b" d="M 1081 4666 
L 1716 4666 
L 1331 2700 
L 3781 4666 
L 4622 4666 
L 1850 2438 
L 3878 0 
L 3109 0 
L 1247 2272 
L 806 0 
L 172 0 
L 1081 4666 
z
" transform="scale(0.015625)"/>
      <path id="DejaVuSans-3d" d="M 678 2906 
L 4684 2906 
L 4684 2381 
L 678 2381 
L 678 2906 
z
M 678 1631 
L 4684 1631 
L 4684 1100 
L 678 1100 
L 678 1631 
z
" transform="scale(0.015625)"/>
      <path id="DejaVuSans-230a" d="M 550 -844 
L 550 4863 
L 1125 4863 
L 1125 -397 
L 1875 -397 
L 1875 -844 
L 550 -844 
z
" transform="scale(0.015625)"/>
      <path id="DejaVuSans-Oblique-4e" d="M 1081 4666 
L 1931 4666 
L 3219 666 
L 4000 4666 
L 4616 4666 
L 3706 0 
L 2853 0 
L 1569 4025 
L 788 0 
L 172 0 
L 1081 4666 
z
" transform="scale(0.015625)"/>
      <path id="DejaVuSans-230b" d="M 1947 -844 
L 622 -844 
L 622 -397 
L 1372 -397 
L 1372 4863 
L 1947 4863 
L 1947 -844 
z
" transform="scale(0.015625)"/>
      <path id="DejaVuSans-Oblique-3ba" d="M 938 3500 
L 1531 3500 
L 1247 2047 
L 3041 3500 
L 3741 3500 
L 2106 2181 
L 3275 0 
L 2572 0 
L 1628 1806 
L 1122 1403 
L 850 0 
L 256 0 
L 938 3500 
z
" transform="scale(0.015625)"/>
      <path id="DejaVuSans-25" d="M 4653 2053 
Q 4381 2053 4226 1822 
Q 4072 1591 4072 1178 
Q 4072 772 4226 539 
Q 4381 306 4653 306 
Q 4919 306 5073 539 
Q 5228 772 5228 1178 
Q 5228 1588 5073 1820 
Q 4919 2053 4653 2053 
z
M 4653 2450 
Q 5147 2450 5437 2106 
Q 5728 1763 5728 1178 
Q 5728 594 5436 251 
Q 5144 -91 4653 -91 
Q 4153 -91 3862 251 
Q 3572 594 3572 1178 
Q 3572 1766 3864 2108 
Q 4156 2450 4653 2450 
z
M 1428 4353 
Q 1159 4353 1004 4120 
Q 850 3888 850 3481 
Q 850 3069 1003 2837 
Q 1156 2606 1428 2606 
Q 1700 2606 1854 2837 
Q 2009 3069 2009 3481 
Q 2009 3884 1853 4118 
Q 1697 4353 1428 4353 
z
M 4250 4750 
L 4750 4750 
L 1831 -91 
L 1331 -91 
L 4250 4750 
z
M 1428 4750 
Q 1922 4750 2215 4408 
Q 2509 4066 2509 3481 
Q 2509 2891 2217 2550 
Q 1925 2209 1428 2209 
Q 931 2209 642 2551 
Q 353 2894 353 3481 
Q 353 4063 643 4406 
Q 934 4750 1428 4750 
z
" transform="scale(0.015625)"/>
     </defs>
     <use xlink:href="#DejaVuSans-45" transform="translate(0 0.015625)"/>
     <use xlink:href="#DejaVuSans-66" transform="translate(63.183594 0.015625)"/>
     <use xlink:href="#DejaVuSans-66" transform="translate(98.388672 0.015625)"/>
     <use xlink:href="#DejaVuSans-69" transform="translate(133.59375 0.015625)"/>
     <use xlink:href="#DejaVuSans-63" transform="translate(161.376953 0.015625)"/>
     <use xlink:href="#DejaVuSans-69" transform="translate(216.357422 0.015625)"/>
     <use xlink:href="#DejaVuSans-65" transform="translate(244.140625 0.015625)"/>
     <use xlink:href="#DejaVuSans-6e" transform="translate(305.664062 0.015625)"/>
     <use xlink:href="#DejaVuSans-74" transform="translate(369.042969 0.015625)"/>
     <use xlink:href="#DejaVuSans-20" transform="translate(408.251953 0.015625)"/>
     <use xlink:href="#DejaVuSans-46" transform="translate(440.039062 0.015625)"/>
     <use xlink:href="#DejaVuSans-72" transform="translate(497.558594 0.015625)"/>
     <use xlink:href="#DejaVuSans-6f" transform="translate(538.671875 0.015625)"/>
     <use xlink:href="#DejaVuSans-6e" transform="translate(599.853516 0.015625)"/>
     <use xlink:href="#DejaVuSans-74" transform="translate(663.232422 0.015625)"/>
     <use xlink:href="#DejaVuSans-69" transform="translate(702.441406 0.015625)"/>
     <use xlink:href="#DejaVuSans-65" transform="translate(730.224609 0.015625)"/>
     <use xlink:href="#DejaVuSans-72" transform="translate(791.748047 0.015625)"/>
     <use xlink:href="#DejaVuSans-20" transform="translate(832.861328 0.015625)"/>
     <use xlink:href="#DejaVuSans-Oblique-4b" transform="translate(864.648438 0.015625)"/>
     <use xlink:href="#DejaVuSans-3d" transform="translate(949.707031 0.015625)"/>
     <use xlink:href="#DejaVuSans-230a" transform="translate(1052.978516 0.015625)"/>
     <use xlink:href="#DejaVuSans-30" transform="translate(1091.992188 0.015625)"/>
     <use xlink:href="#DejaVuSans-2e" transform="translate(1155.615234 0.015625)"/>
     <use xlink:href="#DejaVuSans-30" transform="translate(1187.402344 0.015625)"/>
     <use xlink:href="#DejaVuSans-36" transform="translate(1251.025391 0.015625)"/>
     <use xlink:href="#DejaVuSans-Oblique-4e" transform="translate(1314.648438 0.015625)"/>
     <use xlink:href="#DejaVuSans-230b" transform="translate(1389.453125 0.015625)"/>
     <use xlink:href="#DejaVuSans-20" transform="translate(1428.466797 0.015625)"/>
     <use xlink:href="#DejaVuSans-Oblique-3ba" transform="translate(1460.253906 0.015625)"/>
     <use xlink:href="#DejaVuSans-3d" transform="translate(1538.671875 0.015625)"/>
     <use xlink:href="#DejaVuSans-31" transform="translate(1641.943359 0.015625)"/>
     <use xlink:href="#DejaVuSans-36" transform="translate(1705.566406 0.015625)"/>
     <use xlink:href="#DejaVuSans-30" transform="translate(1769.189453 0.015625)"/>
     <use xlink:href="#DejaVuSans-2e" transform="translate(1832.8125 0.015625)"/>
     <use xlink:href="#DejaVuSans-30" transform="translate(1864.599609 0.015625)"/>
     <use xlink:href="#DejaVuSans-25" transform="translate(1928.222656 0.015625)"/>
    </g>
   </g>
   <g id="legend_1">
    <g id="patch_7">
     <path d="M 278.6 163.926 
L 414.2 163.926 
Q 416.2 163.926 416.2 161.926 
L 416.2 104.2135 
Q 416.2 102.2135 414.2 102.2135 
L 278.6 102.2135 
Q 276.6 102.2135 276.6 104.2135 
L 276.6 161.926 
Q 276.6 163.926 278.6 163.926 
z
" style="fill: #ffffff; opacity: 0.8; stroke: #cccccc; stroke-linejoin: miter"/>
    </g>
    <g id="line2d_18">
     <path d="M 280.6 110.311937 
L 290.6 110.311937 
L 300.6 110.311937 
" style="fill: none; stroke: #648fff; stroke-width: 1.5; stroke-linecap: square"/>
     <g>
      <use xlink:href="#m36cbf00aaf" x="290.6" y="110.311937" style="fill: #648fff; stroke: #648fff"/>
     </g>
    </g>
    <g id="text_17">
     <!-- MVO -->
     <g transform="translate(308.6 113.811937)scale(0.1 -0.1)">
      <defs>
       <path id="DejaVuSans-4d" d="M 628 4666 
L 1569 4666 
L 2759 1491 
L 3956 4666 
L 4897 4666 
L 4897 0 
L 4281 0 
L 4281 4097 
L 3078 897 
L 2444 897 
L 1241 4097 
L 1241 0 
L 628 0 
L 628 4666 
z
" transform="scale(0.015625)"/>
       <path id="DejaVuSans-56" d="M 1831 0 
L 50 4666 
L 709 4666 
L 2188 738 
L 3669 4666 
L 4325 4666 
L 2547 0 
L 1831 0 
z
" transform="scale(0.015625)"/>
       <path id="DejaVuSans-4f" d="M 2522 4238 
Q 1834 4238 1429 3725 
Q 1025 3213 1025 2328 
Q 1025 1447 1429 934 
Q 1834 422 2522 422 
Q 3209 422 3611 934 
Q 4013 1447 4013 2328 
Q 4013 3213 3611 3725 
Q 3209 4238 2522 4238 
z
M 2522 4750 
Q 3503 4750 4090 4092 
Q 4678 3434 4678 2328 
Q 4678 1225 4090 567 
Q 3503 -91 2522 -91 
Q 1538 -91 948 565 
Q 359 1222 359 2328 
Q 359 3434 948 4092 
Q 1538 4750 2522 4750 
z
" transform="scale(0.015625)"/>
      </defs>
      <use xlink:href="#DejaVuSans-4d"/>
      <use xlink:href="#DejaVuSans-56" x="86.279297"/>
      <use xlink:href="#DejaVuSans-4f" x="152.9375"/>
     </g>
    </g>
    <g id="line2d_19">
     <path d="M 280.6 124.990062 
L 290.6 124.990062 
L 300.6 124.990062 
" style="fill: none; stroke: #fe6100; stroke-width: 1.5; stroke-linecap: square"/>
     <g>
      <use xlink:href="#mc80666d0ab" x="290.6" y="124.990062" style="fill: #fe6100; stroke: #fe6100"/>
     </g>
    </g>
    <g id="text_18">
     <!-- CardMVO($K$) -->
     <g transform="translate(308.6 128.490062)scale(0.1 -0.1)">
      <defs>
       <path id="DejaVuSans-43" d="M 4122 4306 
L 4122 3641 
Q 3803 3938 3442 4084 
Q 3081 4231 2675 4231 
Q 1875 4231 1450 3742 
Q 1025 3253 1025 2328 
Q 1025 1406 1450 917 
Q 1875 428 2675 428 
Q 3081 428 3442 575 
Q 3803 722 4122 1019 
L 4122 359 
Q 3791 134 3420 21 
Q 3050 -91 2638 -91 
Q 1578 -91 968 557 
Q 359 1206 359 2328 
Q 359 3453 968 4101 
Q 1578 4750 2638 4750 
Q 3056 4750 3426 4639 
Q 3797 4528 4122 4306 
z
" transform="scale(0.015625)"/>
       <path id="DejaVuSans-61" d="M 2194 1759 
Q 1497 1759 1228 1600 
Q 959 1441 959 1056 
Q 959 750 1161 570 
Q 1363 391 1709 391 
Q 2188 391 2477 730 
Q 2766 1069 2766 1631 
L 2766 1759 
L 2194 1759 
z
M 3341 1997 
L 3341 0 
L 2766 0 
L 2766 531 
Q 2569 213 2275 61 
Q 1981 -91 1556 -91 
Q 1019 -91 701 211 
Q 384 513 384 1019 
Q 384 1609 779 1909 
Q 1175 2209 1959 2209 
L 2766 2209 
L 2766 2266 
Q 2766 2663 2505 2880 
Q 2244 3097 1772 3097 
Q 1472 3097 1187 3025 
Q 903 2953 641 2809 
L 641 3341 
Q 956 3463 1253 3523 
Q 1550 3584 1831 3584 
Q 2591 3584 2966 3190 
Q 3341 2797 3341 1997 
z
" transform="scale(0.015625)"/>
       <path id="DejaVuSans-64" d="M 2906 2969 
L 2906 4863 
L 3481 4863 
L 3481 0 
L 2906 0 
L 2906 525 
Q 2725 213 2448 61 
Q 2172 -91 1784 -91 
Q 1150 -91 751 415 
Q 353 922 353 1747 
Q 353 2572 751 3078 
Q 1150 3584 1784 3584 
Q 2172 3584 2448 3432 
Q 2725 3281 2906 2969 
z
M 947 1747 
Q 947 1113 1208 752 
Q 1469 391 1925 391 
Q 2381 391 2643 752 
Q 2906 1113 2906 1747 
Q 2906 2381 2643 2742 
Q 2381 3103 1925 3103 
Q 1469 3103 1208 2742 
Q 947 2381 947 1747 
z
" transform="scale(0.015625)"/>
       <path id="DejaVuSans-28" d="M 1984 4856 
Q 1566 4138 1362 3434 
Q 1159 2731 1159 2009 
Q 1159 1288 1364 580 
Q 1569 -128 1984 -844 
L 1484 -844 
Q 1016 -109 783 600 
Q 550 1309 550 2009 
Q 550 2706 781 3412 
Q 1013 4119 1484 4856 
L 1984 4856 
z
" transform="scale(0.015625)"/>
       <path id="DejaVuSans-29" d="M 513 4856 
L 1013 4856 
Q 1481 4119 1714 3412 
Q 1947 2706 1947 2009 
Q 1947 1309 1714 600 
Q 1481 -109 1013 -844 
L 513 -844 
Q 928 -128 1133 580 
Q 1338 1288 1338 2009 
Q 1338 2731 1133 3434 
Q 928 4138 513 4856 
z
" transform="scale(0.015625)"/>
      </defs>
      <use xlink:href="#DejaVuSans-43" transform="translate(0 0.015625)"/>
      <use xlink:href="#DejaVuSans-61" transform="translate(69.824219 0.015625)"/>
      <use xlink:href="#DejaVuSans-72" transform="translate(131.103516 0.015625)"/>
      <use xlink:href="#DejaVuSans-64" transform="translate(172.216797 0.015625)"/>
      <use xlink:href="#DejaVuSans-4d" transform="translate(235.693359 0.015625)"/>
      <use xlink:href="#DejaVuSans-56" transform="translate(321.972656 0.015625)"/>
      <use xlink:href="#DejaVuSans-4f" transform="translate(390.380859 0.015625)"/>
      <use xlink:href="#DejaVuSans-28" transform="translate(469.091797 0.015625)"/>
      <use xlink:href="#DejaVuSans-Oblique-4b" transform="translate(508.105469 0.015625)"/>
      <use xlink:href="#DejaVuSans-29" transform="translate(573.681641 0.015625)"/>
     </g>
    </g>
    <g id="line2d_20">
     <path d="M 280.6 139.668187 
L 290.6 139.668187 
L 300.6 139.668187 
" style="fill: none; stroke: #785ef0; stroke-width: 1.5; stroke-linecap: square"/>
     <g>
      <use xlink:href="#m6dcfbe7d37" x="290.6" y="139.668187" style="fill: #785ef0; stroke: #785ef0"/>
     </g>
    </g>
    <g id="text_19">
     <!-- SVMMVO($K, \kappa$) -->
     <g transform="translate(308.6 143.168187)scale(0.1 -0.1)">
      <defs>
       <path id="DejaVuSans-53" d="M 3425 4513 
L 3425 3897 
Q 3066 4069 2747 4153 
Q 2428 4238 2131 4238 
Q 1616 4238 1336 4038 
Q 1056 3838 1056 3469 
Q 1056 3159 1242 3001 
Q 1428 2844 1947 2747 
L 2328 2669 
Q 3034 2534 3370 2195 
Q 3706 1856 3706 1288 
Q 3706 609 3251 259 
Q 2797 -91 1919 -91 
Q 1588 -91 1214 -16 
Q 841 59 441 206 
L 441 856 
Q 825 641 1194 531 
Q 1563 422 1919 422 
Q 2459 422 2753 634 
Q 3047 847 3047 1241 
Q 3047 1584 2836 1778 
Q 2625 1972 2144 2069 
L 1759 2144 
Q 1053 2284 737 2584 
Q 422 2884 422 3419 
Q 422 4038 858 4394 
Q 1294 4750 2059 4750 
Q 2388 4750 2728 4690 
Q 3069 4631 3425 4513 
z
" transform="scale(0.015625)"/>
       <path id="DejaVuSans-2c" d="M 750 794 
L 1409 794 
L 1409 256 
L 897 -744 
L 494 -744 
L 750 256 
L 750 794 
z
" transform="scale(0.015625)"/>
      </defs>
      <use xlink:href="#DejaVuSans-53" transform="translate(0 0.125)"/>
      <use xlink:href="#DejaVuSans-56" transform="translate(63.476562 0.125)"/>
      <use xlink:href="#DejaVuSans-4d" transform="translate(131.884766 0.125)"/>
      <use xlink:href="#DejaVuSans-4d" transform="translate(218.164062 0.125)"/>
      <use xlink:href="#DejaVuSans-56" transform="translate(304.443359 0.125)"/>
      <use xlink:href="#DejaVuSans-4f" transform="translate(372.851562 0.125)"/>
      <use xlink:href="#DejaVuSans-28" transform="translate(451.5625 0.125)"/>
      <use xlink:href="#DejaVuSans-Oblique-4b" transform="translate(490.576172 0.125)"/>
      <use xlink:href="#DejaVuSans-2c" transform="translate(556.152344 0.125)"/>
      <use xlink:href="#DejaVuSans-Oblique-3ba" transform="translate(607.421875 0.125)"/>
      <use xlink:href="#DejaVuSans-29" transform="translate(666.357422 0.125)"/>
     </g>
    </g>
    <g id="line2d_21">
     <path d="M 280.6 154.346312 
L 290.6 154.346312 
L 300.6 154.346312 
" style="fill: none; stroke: #ffb000; stroke-width: 1.5; stroke-linecap: square"/>
     <g>
      <use xlink:href="#me2d1ec2128" x="290.6" y="154.346312" style="fill: #ffb000; stroke: #ffb000"/>
     </g>
    </g>
    <g id="text_20">
     <!-- $(1 + \kappa)$ - CardMVO($K$) -->
     <g transform="translate(308.6 157.846312)scale(0.1 -0.1)">
      <defs>
       <path id="DejaVuSans-2b" d="M 2944 4013 
L 2944 2272 
L 4684 2272 
L 4684 1741 
L 2944 1741 
L 2944 0 
L 2419 0 
L 2419 1741 
L 678 1741 
L 678 2272 
L 2419 2272 
L 2419 4013 
L 2944 4013 
z
" transform="scale(0.015625)"/>
       <path id="DejaVuSans-2d" d="M 313 2009 
L 1997 2009 
L 1997 1497 
L 313 1497 
L 313 2009 
z
" transform="scale(0.015625)"/>
      </defs>
      <use xlink:href="#DejaVuSans-28" transform="translate(0 0.015625)"/>
      <use xlink:href="#DejaVuSans-31" transform="translate(39.013672 0.015625)"/>
      <use xlink:href="#DejaVuSans-2b" transform="translate(122.119141 0.015625)"/>
      <use xlink:href="#DejaVuSans-Oblique-3ba" transform="translate(225.390625 0.015625)"/>
      <use xlink:href="#DejaVuSans-29" transform="translate(284.326172 0.015625)"/>
      <use xlink:href="#DejaVuSans-20" transform="translate(323.339844 0.015625)"/>
      <use xlink:href="#DejaVuSans-2d" transform="translate(355.126953 0.015625)"/>
      <use xlink:href="#DejaVuSans-20" transform="translate(391.210938 0.015625)"/>
      <use xlink:href="#DejaVuSans-43" transform="translate(422.998047 0.015625)"/>
      <use xlink:href="#DejaVuSans-61" transform="translate(492.822266 0.015625)"/>
      <use xlink:href="#DejaVuSans-72" transform="translate(554.101562 0.015625)"/>
      <use xlink:href="#DejaVuSans-64" transform="translate(595.214844 0.015625)"/>
      <use xlink:href="#DejaVuSans-4d" transform="translate(658.691406 0.015625)"/>
      <use xlink:href="#DejaVuSans-56" transform="translate(744.970703 0.015625)"/>
      <use xlink:href="#DejaVuSans-4f" transform="translate(813.378906 0.015625)"/>
      <use xlink:href="#DejaVuSans-28" transform="translate(892.089844 0.015625)"/>
      <use xlink:href="#DejaVuSans-Oblique-4b" transform="translate(931.103516 0.015625)"/>
      <use xlink:href="#DejaVuSans-29" transform="translate(996.679688 0.015625)"/>
     </g>
    </g>
   </g>
  </g>
 </g>
 <defs>
  <clipPath id="p0806f3f435">
   <rect x="49.682" y="26.9925" width="371.518" height="141.9335"/>
  </clipPath>
 </defs>
</svg>
