<?xml version="1.0" encoding="utf-8" standalone="no"?>
<!DOCTYPE svg PUBLIC "-//W3C//DTD SVG 1.1//EN"
  "http://www.w3.org/Graphics/SVG/1.1/DTD/svg11.dtd">
<svg xmlns:xlink="http://www.w3.org/1999/xlink" width="432pt" height="216pt" viewBox="0 0 432 216" xmlns="http://www.w3.org/2000/svg" version="1.1">
 <metadata>
  <rdf:RDF xmlns:dc="http://purl.org/dc/elements/1.1/" xmlns:cc="http://creativecommons.org/ns#" xmlns:rdf="http://www.w3.org/1999/02/22-rdf-syntax-ns#">
   <cc:Work>
    <dc:type rdf:resource="http://purl.org/dc/dcmitype/StillImage"/>
    <dc:date>2024-01-21T18:53:15.075780</dc:date>
    <dc:format>image/svg+xml</dc:format>
    <dc:creator>
     <cc:Agent>
      <dc:title>Matplotlib v3.5.2, https://matplotlib.org/</dc:title>
     </cc:Agent>
    </dc:creator>
   </cc:Work>
  </rdf:RDF>
 </metadata>
 <defs>
  <style type="text/css">*{stroke-linejoin: round; stroke-linecap: butt}</style>
 </defs>
 <g id="figure_1">
  <g id="patch_1">
   <path d="M 0 216 
L 432 216 
L 432 0 
L 0 0 
z
" style="fill: #ffffff"/>
  </g>
  <g id="axes_1">
   <g id="patch_2">
    <path d="M 54 192.24 
L 388.8 192.24 
L 388.8 25.92 
L 54 25.92 
z
" style="fill: #ffffff"/>
   </g>
   <g id="matplotlib.axis_1">
    <g id="xtick_1">
     <g id="line2d_1">
      <defs>
       <path id="ma6025a6993" d="M 0 0 
L 0 3.5 
" style="stroke: #000000; stroke-width: 0.8"/>
      </defs>
      <g>
       <use xlink:href="#ma6025a6993" x="69.393103" y="192.24" style="stroke: #000000; stroke-width: 0.8"/>
      </g>
     </g>
     <g id="text_1">
      <!-- 2009 -->
      <g transform="translate(56.668103 206.838437)scale(0.1 -0.1)">
       <defs>
        <path id="DejaVuSans-32" d="M 1228 531 
L 3431 531 
L 3431 0 
L 469 0 
L 469 531 
Q 828 903 1448 1529 
Q 2069 2156 2228 2338 
Q 2531 2678 2651 2914 
Q 2772 3150 2772 3378 
Q 2772 3750 2511 3984 
Q 2250 4219 1831 4219 
Q 1534 4219 1204 4116 
Q 875 4013 500 3803 
L 500 4441 
Q 881 4594 1212 4672 
Q 1544 4750 1819 4750 
Q 2544 4750 2975 4387 
Q 3406 4025 3406 3419 
Q 3406 3131 3298 2873 
Q 3191 2616 2906 2266 
Q 2828 2175 2409 1742 
Q 1991 1309 1228 531 
z
" transform="scale(0.015625)"/>
        <path id="DejaVuSans-30" d="M 2034 4250 
Q 1547 4250 1301 3770 
Q 1056 3291 1056 2328 
Q 1056 1369 1301 889 
Q 1547 409 2034 409 
Q 2525 409 2770 889 
Q 3016 1369 3016 2328 
Q 3016 3291 2770 3770 
Q 2525 4250 2034 4250 
z
M 2034 4750 
Q 2819 4750 3233 4129 
Q 3647 3509 3647 2328 
Q 3647 1150 3233 529 
Q 2819 -91 2034 -91 
Q 1250 -91 836 529 
Q 422 1150 422 2328 
Q 422 3509 836 4129 
Q 1250 4750 2034 4750 
z
" transform="scale(0.015625)"/>
        <path id="DejaVuSans-39" d="M 703 97 
L 703 672 
Q 941 559 1184 500 
Q 1428 441 1663 441 
Q 2288 441 2617 861 
Q 2947 1281 2994 2138 
Q 2813 1869 2534 1725 
Q 2256 1581 1919 1581 
Q 1219 1581 811 2004 
Q 403 2428 403 3163 
Q 403 3881 828 4315 
Q 1253 4750 1959 4750 
Q 2769 4750 3195 4129 
Q 3622 3509 3622 2328 
Q 3622 1225 3098 567 
Q 2575 -91 1691 -91 
Q 1453 -91 1209 -44 
Q 966 3 703 97 
z
M 1959 2075 
Q 2384 2075 2632 2365 
Q 2881 2656 2881 3163 
Q 2881 3666 2632 3958 
Q 2384 4250 1959 4250 
Q 1534 4250 1286 3958 
Q 1038 3666 1038 3163 
Q 1038 2656 1286 2365 
Q 1534 2075 1959 2075 
z
" transform="scale(0.015625)"/>
       </defs>
       <use xlink:href="#DejaVuSans-32"/>
       <use xlink:href="#DejaVuSans-30" x="63.623047"/>
       <use xlink:href="#DejaVuSans-30" x="127.246094"/>
       <use xlink:href="#DejaVuSans-39" x="190.869141"/>
      </g>
     </g>
    </g>
    <g id="xtick_2">
     <g id="line2d_2">
      <g>
       <use xlink:href="#ma6025a6993" x="115.572414" y="192.24" style="stroke: #000000; stroke-width: 0.8"/>
      </g>
     </g>
     <g id="text_2">
      <!-- 2011 -->
      <g transform="translate(102.847414 206.838437)scale(0.1 -0.1)">
       <defs>
        <path id="DejaVuSans-31" d="M 794 531 
L 1825 531 
L 1825 4091 
L 703 3866 
L 703 4441 
L 1819 4666 
L 2450 4666 
L 2450 531 
L 3481 531 
L 3481 0 
L 794 0 
L 794 531 
z
" transform="scale(0.015625)"/>
       </defs>
       <use xlink:href="#DejaVuSans-32"/>
       <use xlink:href="#DejaVuSans-30" x="63.623047"/>
       <use xlink:href="#DejaVuSans-31" x="127.246094"/>
       <use xlink:href="#DejaVuSans-31" x="190.869141"/>
      </g>
     </g>
    </g>
    <g id="xtick_3">
     <g id="line2d_3">
      <g>
       <use xlink:href="#ma6025a6993" x="161.751724" y="192.24" style="stroke: #000000; stroke-width: 0.8"/>
      </g>
     </g>
     <g id="text_3">
      <!-- 2013 -->
      <g transform="translate(149.026724 206.838437)scale(0.1 -0.1)">
       <defs>
        <path id="DejaVuSans-33" d="M 2597 2516 
Q 3050 2419 3304 2112 
Q 3559 1806 3559 1356 
Q 3559 666 3084 287 
Q 2609 -91 1734 -91 
Q 1441 -91 1130 -33 
Q 819 25 488 141 
L 488 750 
Q 750 597 1062 519 
Q 1375 441 1716 441 
Q 2309 441 2620 675 
Q 2931 909 2931 1356 
Q 2931 1769 2642 2001 
Q 2353 2234 1838 2234 
L 1294 2234 
L 1294 2753 
L 1863 2753 
Q 2328 2753 2575 2939 
Q 2822 3125 2822 3475 
Q 2822 3834 2567 4026 
Q 2313 4219 1838 4219 
Q 1578 4219 1281 4162 
Q 984 4106 628 3988 
L 628 4550 
Q 988 4650 1302 4700 
Q 1616 4750 1894 4750 
Q 2613 4750 3031 4423 
Q 3450 4097 3450 3541 
Q 3450 3153 3228 2886 
Q 3006 2619 2597 2516 
z
" transform="scale(0.015625)"/>
       </defs>
       <use xlink:href="#DejaVuSans-32"/>
       <use xlink:href="#DejaVuSans-30" x="63.623047"/>
       <use xlink:href="#DejaVuSans-31" x="127.246094"/>
       <use xlink:href="#DejaVuSans-33" x="190.869141"/>
      </g>
     </g>
    </g>
    <g id="xtick_4">
     <g id="line2d_4">
      <g>
       <use xlink:href="#ma6025a6993" x="207.931034" y="192.24" style="stroke: #000000; stroke-width: 0.8"/>
      </g>
     </g>
     <g id="text_4">
      <!-- 2015 -->
      <g transform="translate(195.206034 206.838437)scale(0.1 -0.1)">
       <defs>
        <path id="DejaVuSans-35" d="M 691 4666 
L 3169 4666 
L 3169 4134 
L 1269 4134 
L 1269 2991 
Q 1406 3038 1543 3061 
Q 1681 3084 1819 3084 
Q 2600 3084 3056 2656 
Q 3513 2228 3513 1497 
Q 3513 744 3044 326 
Q 2575 -91 1722 -91 
Q 1428 -91 1123 -41 
Q 819 9 494 109 
L 494 744 
Q 775 591 1075 516 
Q 1375 441 1709 441 
Q 2250 441 2565 725 
Q 2881 1009 2881 1497 
Q 2881 1984 2565 2268 
Q 2250 2553 1709 2553 
Q 1456 2553 1204 2497 
Q 953 2441 691 2322 
L 691 4666 
z
" transform="scale(0.015625)"/>
       </defs>
       <use xlink:href="#DejaVuSans-32"/>
       <use xlink:href="#DejaVuSans-30" x="63.623047"/>
       <use xlink:href="#DejaVuSans-31" x="127.246094"/>
       <use xlink:href="#DejaVuSans-35" x="190.869141"/>
      </g>
     </g>
    </g>
    <g id="xtick_5">
     <g id="line2d_5">
      <g>
       <use xlink:href="#ma6025a6993" x="254.110345" y="192.24" style="stroke: #000000; stroke-width: 0.8"/>
      </g>
     </g>
     <g id="text_5">
      <!-- 2017 -->
      <g transform="translate(241.385345 206.838437)scale(0.1 -0.1)">
       <defs>
        <path id="DejaVuSans-37" d="M 525 4666 
L 3525 4666 
L 3525 4397 
L 1831 0 
L 1172 0 
L 2766 4134 
L 525 4134 
L 525 4666 
z
" transform="scale(0.015625)"/>
       </defs>
       <use xlink:href="#DejaVuSans-32"/>
       <use xlink:href="#DejaVuSans-30" x="63.623047"/>
       <use xlink:href="#DejaVuSans-31" x="127.246094"/>
       <use xlink:href="#DejaVuSans-37" x="190.869141"/>
      </g>
     </g>
    </g>
    <g id="xtick_6">
     <g id="line2d_6">
      <g>
       <use xlink:href="#ma6025a6993" x="300.289655" y="192.24" style="stroke: #000000; stroke-width: 0.8"/>
      </g>
     </g>
     <g id="text_6">
      <!-- 2019 -->
      <g transform="translate(287.564655 206.838437)scale(0.1 -0.1)">
       <use xlink:href="#DejaVuSans-32"/>
       <use xlink:href="#DejaVuSans-30" x="63.623047"/>
       <use xlink:href="#DejaVuSans-31" x="127.246094"/>
       <use xlink:href="#DejaVuSans-39" x="190.869141"/>
      </g>
     </g>
    </g>
    <g id="xtick_7">
     <g id="line2d_7">
      <g>
       <use xlink:href="#ma6025a6993" x="346.468966" y="192.24" style="stroke: #000000; stroke-width: 0.8"/>
      </g>
     </g>
     <g id="text_7">
      <!-- 2021 -->
      <g transform="translate(333.743966 206.838437)scale(0.1 -0.1)">
       <use xlink:href="#DejaVuSans-32"/>
       <use xlink:href="#DejaVuSans-30" x="63.623047"/>
       <use xlink:href="#DejaVuSans-32" x="127.246094"/>
       <use xlink:href="#DejaVuSans-31" x="190.869141"/>
      </g>
     </g>
    </g>
    <g id="xtick_8">
     <g id="line2d_8">
      <defs>
       <path id="m48af0952e0" d="M 0 0 
L 0 2 
" style="stroke: #000000; stroke-width: 0.6"/>
      </defs>
      <g>
       <use xlink:href="#m48af0952e0" x="92.482759" y="192.24" style="stroke: #000000; stroke-width: 0.6"/>
      </g>
     </g>
    </g>
    <g id="xtick_9">
     <g id="line2d_9">
      <g>
       <use xlink:href="#m48af0952e0" x="138.662069" y="192.24" style="stroke: #000000; stroke-width: 0.6"/>
      </g>
     </g>
    </g>
    <g id="xtick_10">
     <g id="line2d_10">
      <g>
       <use xlink:href="#m48af0952e0" x="184.841379" y="192.24" style="stroke: #000000; stroke-width: 0.6"/>
      </g>
     </g>
    </g>
    <g id="xtick_11">
     <g id="line2d_11">
      <g>
       <use xlink:href="#m48af0952e0" x="231.02069" y="192.24" style="stroke: #000000; stroke-width: 0.6"/>
      </g>
     </g>
    </g>
    <g id="xtick_12">
     <g id="line2d_12">
      <g>
       <use xlink:href="#m48af0952e0" x="277.2" y="192.24" style="stroke: #000000; stroke-width: 0.6"/>
      </g>
     </g>
    </g>
    <g id="xtick_13">
     <g id="line2d_13">
      <g>
       <use xlink:href="#m48af0952e0" x="323.37931" y="192.24" style="stroke: #000000; stroke-width: 0.6"/>
      </g>
     </g>
    </g>
    <g id="xtick_14">
     <g id="line2d_14">
      <g>
       <use xlink:href="#m48af0952e0" x="369.558621" y="192.24" style="stroke: #000000; stroke-width: 0.6"/>
      </g>
     </g>
    </g>
    <g id="text_8">
     <!-- ticker -->
     <g transform="translate(207.455469 220.516562)scale(0.1 -0.1)">
      <defs>
       <path id="DejaVuSans-74" d="M 1172 4494 
L 1172 3500 
L 2356 3500 
L 2356 3053 
L 1172 3053 
L 1172 1153 
Q 1172 725 1289 603 
Q 1406 481 1766 481 
L 2356 481 
L 2356 0 
L 1766 0 
Q 1100 0 847 248 
Q 594 497 594 1153 
L 594 3053 
L 172 3053 
L 172 3500 
L 594 3500 
L 594 4494 
L 1172 4494 
z
" transform="scale(0.015625)"/>
       <path id="DejaVuSans-69" d="M 603 3500 
L 1178 3500 
L 1178 0 
L 603 0 
L 603 3500 
z
M 603 4863 
L 1178 4863 
L 1178 4134 
L 603 4134 
L 603 4863 
z
" transform="scale(0.015625)"/>
       <path id="DejaVuSans-63" d="M 3122 3366 
L 3122 2828 
Q 2878 2963 2633 3030 
Q 2388 3097 2138 3097 
Q 1578 3097 1268 2742 
Q 959 2388 959 1747 
Q 959 1106 1268 751 
Q 1578 397 2138 397 
Q 2388 397 2633 464 
Q 2878 531 3122 666 
L 3122 134 
Q 2881 22 2623 -34 
Q 2366 -91 2075 -91 
Q 1284 -91 818 406 
Q 353 903 353 1747 
Q 353 2603 823 3093 
Q 1294 3584 2113 3584 
Q 2378 3584 2631 3529 
Q 2884 3475 3122 3366 
z
" transform="scale(0.015625)"/>
       <path id="DejaVuSans-6b" d="M 581 4863 
L 1159 4863 
L 1159 1991 
L 2875 3500 
L 3609 3500 
L 1753 1863 
L 3688 0 
L 2938 0 
L 1159 1709 
L 1159 0 
L 581 0 
L 581 4863 
z
" transform="scale(0.015625)"/>
       <path id="DejaVuSans-65" d="M 3597 1894 
L 3597 1613 
L 953 1613 
Q 991 1019 1311 708 
Q 1631 397 2203 397 
Q 2534 397 2845 478 
Q 3156 559 3463 722 
L 3463 178 
Q 3153 47 2828 -22 
Q 2503 -91 2169 -91 
Q 1331 -91 842 396 
Q 353 884 353 1716 
Q 353 2575 817 3079 
Q 1281 3584 2069 3584 
Q 2775 3584 3186 3129 
Q 3597 2675 3597 1894 
z
M 3022 2063 
Q 3016 2534 2758 2815 
Q 2500 3097 2075 3097 
Q 1594 3097 1305 2825 
Q 1016 2553 972 2059 
L 3022 2063 
z
" transform="scale(0.015625)"/>
       <path id="DejaVuSans-72" d="M 2631 2963 
Q 2534 3019 2420 3045 
Q 2306 3072 2169 3072 
Q 1681 3072 1420 2755 
Q 1159 2438 1159 1844 
L 1159 0 
L 581 0 
L 581 3500 
L 1159 3500 
L 1159 2956 
Q 1341 3275 1631 3429 
Q 1922 3584 2338 3584 
Q 2397 3584 2469 3576 
Q 2541 3569 2628 3553 
L 2631 2963 
z
" transform="scale(0.015625)"/>
      </defs>
      <use xlink:href="#DejaVuSans-74"/>
      <use xlink:href="#DejaVuSans-69" x="39.208984"/>
      <use xlink:href="#DejaVuSans-63" x="66.992188"/>
      <use xlink:href="#DejaVuSans-6b" x="121.972656"/>
      <use xlink:href="#DejaVuSans-65" x="176.257812"/>
      <use xlink:href="#DejaVuSans-72" x="237.78125"/>
     </g>
    </g>
   </g>
   <g id="matplotlib.axis_2">
    <g id="ytick_1">
     <g id="line2d_15">
      <defs>
       <path id="m6b4013d38d" d="M 0 0 
L -3.5 0 
" style="stroke: #000000; stroke-width: 0.8"/>
      </defs>
      <g>
       <use xlink:href="#m6b4013d38d" x="54" y="169.123743" style="stroke: #000000; stroke-width: 0.8"/>
      </g>
     </g>
     <g id="text_9">
      <!-- 100000 -->
      <g transform="translate(8.825 172.922962)scale(0.1 -0.1)">
       <use xlink:href="#DejaVuSans-31"/>
       <use xlink:href="#DejaVuSans-30" x="63.623047"/>
       <use xlink:href="#DejaVuSans-30" x="127.246094"/>
       <use xlink:href="#DejaVuSans-30" x="190.869141"/>
       <use xlink:href="#DejaVuSans-30" x="254.492188"/>
       <use xlink:href="#DejaVuSans-30" x="318.115234"/>
      </g>
     </g>
    </g>
    <g id="ytick_2">
     <g id="line2d_16">
      <g>
       <use xlink:href="#m6b4013d38d" x="54" y="135.54499" style="stroke: #000000; stroke-width: 0.8"/>
      </g>
     </g>
     <g id="text_10">
      <!-- 200000 -->
      <g transform="translate(8.825 139.344209)scale(0.1 -0.1)">
       <use xlink:href="#DejaVuSans-32"/>
       <use xlink:href="#DejaVuSans-30" x="63.623047"/>
       <use xlink:href="#DejaVuSans-30" x="127.246094"/>
       <use xlink:href="#DejaVuSans-30" x="190.869141"/>
       <use xlink:href="#DejaVuSans-30" x="254.492188"/>
       <use xlink:href="#DejaVuSans-30" x="318.115234"/>
      </g>
     </g>
    </g>
    <g id="ytick_3">
     <g id="line2d_17">
      <g>
       <use xlink:href="#m6b4013d38d" x="54" y="101.966238" style="stroke: #000000; stroke-width: 0.8"/>
      </g>
     </g>
     <g id="text_11">
      <!-- 300000 -->
      <g transform="translate(8.825 105.765456)scale(0.1 -0.1)">
       <use xlink:href="#DejaVuSans-33"/>
       <use xlink:href="#DejaVuSans-30" x="63.623047"/>
       <use xlink:href="#DejaVuSans-30" x="127.246094"/>
       <use xlink:href="#DejaVuSans-30" x="190.869141"/>
       <use xlink:href="#DejaVuSans-30" x="254.492188"/>
       <use xlink:href="#DejaVuSans-30" x="318.115234"/>
      </g>
     </g>
    </g>
    <g id="ytick_4">
     <g id="line2d_18">
      <g>
       <use xlink:href="#m6b4013d38d" x="54" y="68.387485" style="stroke: #000000; stroke-width: 0.8"/>
      </g>
     </g>
     <g id="text_12">
      <!-- 400000 -->
      <g transform="translate(8.825 72.186704)scale(0.1 -0.1)">
       <defs>
        <path id="DejaVuSans-34" d="M 2419 4116 
L 825 1625 
L 2419 1625 
L 2419 4116 
z
M 2253 4666 
L 3047 4666 
L 3047 1625 
L 3713 1625 
L 3713 1100 
L 3047 1100 
L 3047 0 
L 2419 0 
L 2419 1100 
L 313 1100 
L 313 1709 
L 2253 4666 
z
" transform="scale(0.015625)"/>
       </defs>
       <use xlink:href="#DejaVuSans-34"/>
       <use xlink:href="#DejaVuSans-30" x="63.623047"/>
       <use xlink:href="#DejaVuSans-30" x="127.246094"/>
       <use xlink:href="#DejaVuSans-30" x="190.869141"/>
       <use xlink:href="#DejaVuSans-30" x="254.492188"/>
       <use xlink:href="#DejaVuSans-30" x="318.115234"/>
      </g>
     </g>
    </g>
    <g id="ytick_5">
     <g id="line2d_19">
      <g>
       <use xlink:href="#m6b4013d38d" x="54" y="34.808732" style="stroke: #000000; stroke-width: 0.8"/>
      </g>
     </g>
     <g id="text_13">
      <!-- 500000 -->
      <g transform="translate(8.825 38.607951)scale(0.1 -0.1)">
       <use xlink:href="#DejaVuSans-35"/>
       <use xlink:href="#DejaVuSans-30" x="63.623047"/>
       <use xlink:href="#DejaVuSans-30" x="127.246094"/>
       <use xlink:href="#DejaVuSans-30" x="190.869141"/>
       <use xlink:href="#DejaVuSans-30" x="254.492188"/>
       <use xlink:href="#DejaVuSans-30" x="318.115234"/>
      </g>
     </g>
    </g>
    <g id="text_14">
     <!-- Total wealth -->
     <g transform="translate(2.745312 139.093281)rotate(-90)scale(0.1 -0.1)">
      <defs>
       <path id="DejaVuSans-54" d="M -19 4666 
L 3928 4666 
L 3928 4134 
L 2272 4134 
L 2272 0 
L 1638 0 
L 1638 4134 
L -19 4134 
L -19 4666 
z
" transform="scale(0.015625)"/>
       <path id="DejaVuSans-6f" d="M 1959 3097 
Q 1497 3097 1228 2736 
Q 959 2375 959 1747 
Q 959 1119 1226 758 
Q 1494 397 1959 397 
Q 2419 397 2687 759 
Q 2956 1122 2956 1747 
Q 2956 2369 2687 2733 
Q 2419 3097 1959 3097 
z
M 1959 3584 
Q 2709 3584 3137 3096 
Q 3566 2609 3566 1747 
Q 3566 888 3137 398 
Q 2709 -91 1959 -91 
Q 1206 -91 779 398 
Q 353 888 353 1747 
Q 353 2609 779 3096 
Q 1206 3584 1959 3584 
z
" transform="scale(0.015625)"/>
       <path id="DejaVuSans-61" d="M 2194 1759 
Q 1497 1759 1228 1600 
Q 959 1441 959 1056 
Q 959 750 1161 570 
Q 1363 391 1709 391 
Q 2188 391 2477 730 
Q 2766 1069 2766 1631 
L 2766 1759 
L 2194 1759 
z
M 3341 1997 
L 3341 0 
L 2766 0 
L 2766 531 
Q 2569 213 2275 61 
Q 1981 -91 1556 -91 
Q 1019 -91 701 211 
Q 384 513 384 1019 
Q 384 1609 779 1909 
Q 1175 2209 1959 2209 
L 2766 2209 
L 2766 2266 
Q 2766 2663 2505 2880 
Q 2244 3097 1772 3097 
Q 1472 3097 1187 3025 
Q 903 2953 641 2809 
L 641 3341 
Q 956 3463 1253 3523 
Q 1550 3584 1831 3584 
Q 2591 3584 2966 3190 
Q 3341 2797 3341 1997 
z
" transform="scale(0.015625)"/>
       <path id="DejaVuSans-6c" d="M 603 4863 
L 1178 4863 
L 1178 0 
L 603 0 
L 603 4863 
z
" transform="scale(0.015625)"/>
       <path id="DejaVuSans-20" transform="scale(0.015625)"/>
       <path id="DejaVuSans-77" d="M 269 3500 
L 844 3500 
L 1563 769 
L 2278 3500 
L 2956 3500 
L 3675 769 
L 4391 3500 
L 4966 3500 
L 4050 0 
L 3372 0 
L 2619 2869 
L 1863 0 
L 1184 0 
L 269 3500 
z
" transform="scale(0.015625)"/>
       <path id="DejaVuSans-68" d="M 3513 2113 
L 3513 0 
L 2938 0 
L 2938 2094 
Q 2938 2591 2744 2837 
Q 2550 3084 2163 3084 
Q 1697 3084 1428 2787 
Q 1159 2491 1159 1978 
L 1159 0 
L 581 0 
L 581 4863 
L 1159 4863 
L 1159 2956 
Q 1366 3272 1645 3428 
Q 1925 3584 2291 3584 
Q 2894 3584 3203 3211 
Q 3513 2838 3513 2113 
z
" transform="scale(0.015625)"/>
      </defs>
      <use xlink:href="#DejaVuSans-54"/>
      <use xlink:href="#DejaVuSans-6f" x="44.083984"/>
      <use xlink:href="#DejaVuSans-74" x="105.265625"/>
      <use xlink:href="#DejaVuSans-61" x="144.474609"/>
      <use xlink:href="#DejaVuSans-6c" x="205.753906"/>
      <use xlink:href="#DejaVuSans-20" x="233.537109"/>
      <use xlink:href="#DejaVuSans-77" x="265.324219"/>
      <use xlink:href="#DejaVuSans-65" x="347.111328"/>
      <use xlink:href="#DejaVuSans-61" x="408.634766"/>
      <use xlink:href="#DejaVuSans-6c" x="469.914062"/>
      <use xlink:href="#DejaVuSans-74" x="497.697266"/>
      <use xlink:href="#DejaVuSans-68" x="536.90625"/>
     </g>
    </g>
   </g>
   <g id="line2d_20">
    <path d="M 54 169.123743 
L 55.924138 169.728466 
L 57.848276 169.898468 
L 59.772414 169.473446 
L 61.696552 171.800872 
L 63.62069 172.782519 
L 65.544828 172.911845 
L 67.468966 171.007737 
L 69.393103 171.130925 
L 71.317241 172.008649 
L 75.165517 170.288628 
L 77.089655 169.791588 
L 80.937931 167.988825 
L 82.862069 168.073764 
L 84.786207 166.361528 
L 86.710345 167.010032 
L 90.558621 164.785887 
L 94.406897 164.007541 
L 96.331034 161.146923 
L 98.255172 159.998783 
L 100.17931 162.911898 
L 102.103448 161.654733 
L 104.027586 160.598682 
L 105.951724 159.778278 
L 109.8 157.224731 
L 111.724138 158.140192 
L 113.648276 156.416842 
L 115.572414 158.797867 
L 117.496552 156.598592 
L 119.42069 155.19502 
L 121.344828 153.589806 
L 123.268966 154.836006 
L 125.193103 156.97084 
L 127.117241 156.184856 
L 129.041379 156.916032 
L 130.965517 162.443414 
L 132.889655 158.284295 
L 134.813793 158.754071 
L 136.737931 157.696704 
L 138.662069 154.956057 
L 140.586207 153.78319 
L 142.510345 154.387392 
L 144.434483 153.510132 
L 146.358621 154.760287 
L 148.282759 152.655829 
L 150.206897 151.00109 
L 152.131034 150.789023 
L 154.055172 149.851595 
L 155.97931 150.86261 
L 157.903448 149.906176 
L 159.827586 150.031833 
L 161.751724 148.040078 
L 163.675862 149.128865 
L 165.6 149.824114 
L 167.524138 148.796339 
L 171.372414 150.649564 
L 175.22069 152.263634 
L 177.144828 150.707139 
L 179.068966 149.955669 
L 180.993103 149.758208 
L 182.917241 147.942279 
L 184.841379 148.876195 
L 186.765517 146.600943 
L 188.689655 147.781552 
L 190.613793 148.31679 
L 192.537931 147.355059 
L 194.462069 145.891575 
L 196.386207 145.925721 
L 198.310345 144.327621 
L 202.158621 141.960976 
L 204.082759 139.074224 
L 206.006897 138.693631 
L 207.931034 136.572433 
L 209.855172 137.160329 
L 211.77931 137.530346 
L 213.703448 138.736116 
L 215.627586 138.289797 
L 217.551724 139.128288 
L 219.475862 138.49274 
L 221.4 139.08845 
L 223.324138 138.879876 
L 225.248276 138.267459 
L 227.172414 138.512692 
L 229.096552 138.230133 
L 231.02069 138.21711 
L 232.944828 137.78415 
L 234.868966 136.849987 
L 236.793103 136.300353 
L 238.717241 136.206179 
L 240.641379 132.381581 
L 242.565517 130.741037 
L 244.489655 132.73873 
L 246.413793 133.073542 
L 248.337931 135.570151 
L 250.262069 138.737933 
L 252.186207 136.921688 
L 254.110345 136.643851 
L 256.034483 135.693094 
L 257.958621 136.205692 
L 259.882759 135.445467 
L 261.806897 135.057262 
L 263.731034 134.098448 
L 265.655172 131.271065 
L 267.57931 131.025211 
L 271.427586 129.14095 
L 273.351724 128.596124 
L 275.275862 126.077644 
L 277.2 124.854286 
L 279.124138 127.164589 
L 281.048276 126.758665 
L 282.972414 127.110528 
L 284.896552 127.860982 
L 286.82069 126.938925 
L 288.744828 126.927873 
L 290.668966 126.554393 
L 292.593103 126.97026 
L 294.517241 129.646934 
L 296.441379 128.496538 
L 298.365517 128.641572 
L 300.289655 126.765362 
L 302.213793 126.261593 
L 304.137931 125.099143 
L 306.062069 124.483643 
L 307.986207 123.645825 
L 309.910345 116.738249 
L 311.834483 115.058082 
L 313.758621 108.197337 
L 315.682759 113.531576 
L 317.606897 110.462919 
L 319.531034 112.590406 
L 321.455172 105.740876 
L 323.37931 106.358552 
L 325.303448 111.410866 
L 327.227586 121.568777 
L 329.151724 107.691911 
L 331.075862 102.212099 
L 333 97.474309 
L 334.924138 90.01915 
L 336.848276 89.784991 
L 338.772414 91.784673 
L 340.696552 92.141002 
L 342.62069 84.811586 
L 344.544828 74.887173 
L 346.468966 71.20996 
L 348.393103 68.485742 
L 350.317241 68.229336 
L 352.241379 57.321584 
L 354.165517 55.952915 
L 356.089655 41.538087 
L 358.013793 39.739146 
L 359.937931 43.311836 
L 361.862069 45.043289 
L 363.786207 42.254244 
L 365.710345 40.827594 
L 367.634483 33.48 
L 369.558621 42.041745 
L 371.482759 41.849832 
L 373.406897 44.679149 
L 375.331034 55.498994 
L 377.255172 55.799831 
L 379.17931 60.112698 
L 381.103448 54.425567 
L 383.027586 58.367926 
L 384.951724 67.815632 
L 386.875862 65.820129 
L 388.8 61.574703 
L 388.8 61.574703 
" clip-path="url(#pfeccf4e670)" style="fill: none; stroke: #1f77b4; stroke-width: 1.5; stroke-linecap: square"/>
   </g>
   <g id="line2d_21">
    <path d="M 54 169.123743 
L 55.924138 171.927537 
L 57.848276 172.204074 
L 59.772414 171.732761 
L 61.696552 174.655476 
L 63.62069 179.288468 
L 65.544828 180.918239 
L 67.468966 180.703984 
L 69.393103 182.510377 
L 71.317241 184.68 
L 73.241379 183.175405 
L 75.165517 181.235465 
L 77.089655 179.980643 
L 79.013793 179.995946 
L 80.937931 178.301906 
L 84.786207 176.503421 
L 86.710345 177.007106 
L 88.634483 175.424096 
L 90.558621 174.903842 
L 92.482759 175.914112 
L 94.406897 175.078457 
L 96.331034 173.396008 
L 98.255172 172.942634 
L 100.17931 175.307192 
L 102.103448 176.72472 
L 104.027586 174.950419 
L 105.951724 176.198722 
L 107.875862 173.825209 
L 109.8 172.722037 
L 111.724138 172.722037 
L 113.648276 170.718016 
L 115.572414 169.972771 
L 117.496552 168.835828 
L 119.42069 168.832206 
L 121.344828 167.851273 
L 123.268966 168.242114 
L 127.117241 169.501774 
L 129.041379 171.327005 
L 130.965517 173.50601 
L 132.889655 170.319297 
L 134.813793 170.450894 
L 136.737931 170.114188 
L 140.586207 167.122815 
L 142.510345 165.978687 
L 144.434483 166.223843 
L 146.358621 168.414596 
L 148.282759 167.02495 
L 150.206897 166.602901 
L 154.055172 164.760226 
L 155.97931 165.450708 
L 157.903448 165.239874 
L 159.827586 164.902773 
L 161.751724 162.967797 
L 163.675862 162.460828 
L 165.6 160.932632 
L 167.524138 160.130135 
L 169.448276 159.125013 
L 171.372414 159.707226 
L 173.296552 157.485366 
L 175.22069 158.841531 
L 177.144828 157.451958 
L 179.068966 155.356552 
L 180.993103 153.95333 
L 182.917241 152.690929 
L 184.841379 154.453749 
L 186.765517 152.257671 
L 190.613793 151.484858 
L 194.462069 149.214963 
L 196.386207 149.933706 
L 198.310345 147.851266 
L 200.234483 148.60773 
L 202.158621 147.333749 
L 204.082759 145.81266 
L 206.006897 145.958307 
L 207.931034 147.639596 
L 209.855172 144.54481 
L 211.77931 145.46049 
L 213.703448 144.897582 
L 215.627586 144.154431 
L 217.551724 145.331263 
L 219.475862 144.060619 
L 221.4 147.65799 
L 223.324138 149.033549 
L 225.248276 144.456323 
L 227.172414 144.243429 
L 229.096552 145.24771 
L 231.02069 148.10819 
L 232.944828 148.153282 
L 234.868966 144.485254 
L 236.793103 144.255808 
L 238.717241 143.261539 
L 240.641379 143.053649 
L 242.565517 140.87818 
L 246.413793 140.799324 
L 248.337931 141.872541 
L 250.262069 139.631663 
L 254.110345 137.200861 
L 256.034483 134.627201 
L 257.958621 134.541557 
L 259.882759 133.864979 
L 261.806897 132.893482 
L 263.731034 132.448498 
L 265.655172 131.004485 
L 267.57931 130.795292 
L 269.503448 129.347014 
L 271.427586 127.618461 
L 273.351724 125.323456 
L 275.275862 124.388195 
L 277.2 119.974469 
L 279.124138 122.982494 
L 281.048276 125.168057 
L 282.972414 124.767347 
L 284.896552 122.872814 
L 286.82069 122.41338 
L 288.744828 119.438942 
L 290.668966 116.781185 
L 292.593103 116.2701 
L 294.517241 122.24295 
L 296.441379 120.750481 
L 298.365517 127.957031 
L 300.289655 121.972489 
L 302.213793 119.35556 
L 304.137931 117.848739 
L 306.062069 114.382255 
L 307.986207 120.01454 
L 309.910345 114.260078 
L 311.834483 112.922877 
L 313.758621 114.426096 
L 315.682759 112.706566 
L 317.606897 110.717236 
L 319.531034 107.387535 
L 321.455172 104.620205 
L 323.37931 104.65982 
L 325.303448 112.421443 
L 327.227586 123.674302 
L 329.151724 113.639025 
L 331.075862 109.395571 
L 333 107.738354 
L 334.924138 102.145707 
L 336.848276 95.12718 
L 338.772414 99.150315 
L 340.696552 101.73224 
L 342.62069 90.749011 
L 344.544828 86.599343 
L 346.468966 87.782485 
L 348.393103 84.587071 
L 350.317241 79.224035 
L 352.241379 72.690734 
L 354.165517 71.837074 
L 356.089655 68.89617 
L 358.013793 65.629628 
L 359.937931 61.550358 
L 361.862069 68.124563 
L 363.786207 58.682093 
L 365.710345 59.839274 
L 367.634483 53.226382 
L 369.558621 61.109944 
L 371.482759 65.289333 
L 373.406897 60.128704 
L 375.331034 72.642266 
L 377.255172 72.348683 
L 379.17931 83.098867 
L 381.103448 72.084871 
L 383.027586 77.414327 
L 384.951724 88.993007 
L 386.875862 79.751206 
L 388.8 72.916157 
L 388.8 72.916157 
" clip-path="url(#pfeccf4e670)" style="fill: none; stroke: #ff7f0e; stroke-width: 1.5; stroke-linecap: square"/>
   </g>
   <g id="patch_3">
    <path d="M 54 192.24 
L 54 25.92 
" style="fill: none; stroke: #000000; stroke-width: 0.8; stroke-linejoin: miter; stroke-linecap: square"/>
   </g>
   <g id="patch_4">
    <path d="M 388.8 192.24 
L 388.8 25.92 
" style="fill: none; stroke: #000000; stroke-width: 0.8; stroke-linejoin: miter; stroke-linecap: square"/>
   </g>
   <g id="patch_5">
    <path d="M 54 192.24 
L 388.8 192.24 
" style="fill: none; stroke: #000000; stroke-width: 0.8; stroke-linejoin: miter; stroke-linecap: square"/>
   </g>
   <g id="patch_6">
    <path d="M 54 25.92 
L 388.8 25.92 
" style="fill: none; stroke: #000000; stroke-width: 0.8; stroke-linejoin: miter; stroke-linecap: square"/>
   </g>
   <g id="text_15">
    <!-- Portfolio wealth evolution -->
    <g transform="translate(144.93375 19.92)scale(0.12 -0.12)">
     <defs>
      <path id="DejaVuSans-50" d="M 1259 4147 
L 1259 2394 
L 2053 2394 
Q 2494 2394 2734 2622 
Q 2975 2850 2975 3272 
Q 2975 3691 2734 3919 
Q 2494 4147 2053 4147 
L 1259 4147 
z
M 628 4666 
L 2053 4666 
Q 2838 4666 3239 4311 
Q 3641 3956 3641 3272 
Q 3641 2581 3239 2228 
Q 2838 1875 2053 1875 
L 1259 1875 
L 1259 0 
L 628 0 
L 628 4666 
z
" transform="scale(0.015625)"/>
      <path id="DejaVuSans-66" d="M 2375 4863 
L 2375 4384 
L 1825 4384 
Q 1516 4384 1395 4259 
Q 1275 4134 1275 3809 
L 1275 3500 
L 2222 3500 
L 2222 3053 
L 1275 3053 
L 1275 0 
L 697 0 
L 697 3053 
L 147 3053 
L 147 3500 
L 697 3500 
L 697 3744 
Q 697 4328 969 4595 
Q 1241 4863 1831 4863 
L 2375 4863 
z
" transform="scale(0.015625)"/>
      <path id="DejaVuSans-76" d="M 191 3500 
L 800 3500 
L 1894 563 
L 2988 3500 
L 3597 3500 
L 2284 0 
L 1503 0 
L 191 3500 
z
" transform="scale(0.015625)"/>
      <path id="DejaVuSans-75" d="M 544 1381 
L 544 3500 
L 1119 3500 
L 1119 1403 
Q 1119 906 1312 657 
Q 1506 409 1894 409 
Q 2359 409 2629 706 
Q 2900 1003 2900 1516 
L 2900 3500 
L 3475 3500 
L 3475 0 
L 2900 0 
L 2900 538 
Q 2691 219 2414 64 
Q 2138 -91 1772 -91 
Q 1169 -91 856 284 
Q 544 659 544 1381 
z
M 1991 3584 
L 1991 3584 
z
" transform="scale(0.015625)"/>
      <path id="DejaVuSans-6e" d="M 3513 2113 
L 3513 0 
L 2938 0 
L 2938 2094 
Q 2938 2591 2744 2837 
Q 2550 3084 2163 3084 
Q 1697 3084 1428 2787 
Q 1159 2491 1159 1978 
L 1159 0 
L 581 0 
L 581 3500 
L 1159 3500 
L 1159 2956 
Q 1366 3272 1645 3428 
Q 1925 3584 2291 3584 
Q 2894 3584 3203 3211 
Q 3513 2838 3513 2113 
z
" transform="scale(0.015625)"/>
     </defs>
     <use xlink:href="#DejaVuSans-50"/>
     <use xlink:href="#DejaVuSans-6f" x="56.677734"/>
     <use xlink:href="#DejaVuSans-72" x="117.859375"/>
     <use xlink:href="#DejaVuSans-74" x="158.972656"/>
     <use xlink:href="#DejaVuSans-66" x="198.181641"/>
     <use xlink:href="#DejaVuSans-6f" x="233.386719"/>
     <use xlink:href="#DejaVuSans-6c" x="294.568359"/>
     <use xlink:href="#DejaVuSans-69" x="322.351562"/>
     <use xlink:href="#DejaVuSans-6f" x="350.134766"/>
     <use xlink:href="#DejaVuSans-20" x="411.316406"/>
     <use xlink:href="#DejaVuSans-77" x="443.103516"/>
     <use xlink:href="#DejaVuSans-65" x="524.890625"/>
     <use xlink:href="#DejaVuSans-61" x="586.414062"/>
     <use xlink:href="#DejaVuSans-6c" x="647.693359"/>
     <use xlink:href="#DejaVuSans-74" x="675.476562"/>
     <use xlink:href="#DejaVuSans-68" x="714.685547"/>
     <use xlink:href="#DejaVuSans-20" x="778.064453"/>
     <use xlink:href="#DejaVuSans-65" x="809.851562"/>
     <use xlink:href="#DejaVuSans-76" x="871.375"/>
     <use xlink:href="#DejaVuSans-6f" x="930.554688"/>
     <use xlink:href="#DejaVuSans-6c" x="991.736328"/>
     <use xlink:href="#DejaVuSans-75" x="1019.519531"/>
     <use xlink:href="#DejaVuSans-74" x="1082.898438"/>
     <use xlink:href="#DejaVuSans-69" x="1122.107422"/>
     <use xlink:href="#DejaVuSans-6f" x="1149.890625"/>
     <use xlink:href="#DejaVuSans-6e" x="1211.072266"/>
    </g>
   </g>
   <g id="legend_1">
    <g id="patch_7">
     <path d="M 61 63.27625 
L 135.848437 63.27625 
Q 137.848437 63.27625 137.848437 61.27625 
L 137.848437 32.92 
Q 137.848437 30.92 135.848437 30.92 
L 61 30.92 
Q 59 30.92 59 32.92 
L 59 61.27625 
Q 59 63.27625 61 63.27625 
z
" style="fill: #ffffff; opacity: 0.8; stroke: #cccccc; stroke-linejoin: miter"/>
    </g>
    <g id="line2d_22">
     <path d="M 63 39.018437 
L 73 39.018437 
L 83 39.018437 
" style="fill: none; stroke: #1f77b4; stroke-width: 1.5; stroke-linecap: square"/>
    </g>
    <g id="text_16">
     <!-- Strategy -->
     <g transform="translate(91 42.518437)scale(0.1 -0.1)">
      <defs>
       <path id="DejaVuSans-53" d="M 3425 4513 
L 3425 3897 
Q 3066 4069 2747 4153 
Q 2428 4238 2131 4238 
Q 1616 4238 1336 4038 
Q 1056 3838 1056 3469 
Q 1056 3159 1242 3001 
Q 1428 2844 1947 2747 
L 2328 2669 
Q 3034 2534 3370 2195 
Q 3706 1856 3706 1288 
Q 3706 609 3251 259 
Q 2797 -91 1919 -91 
Q 1588 -91 1214 -16 
Q 841 59 441 206 
L 441 856 
Q 825 641 1194 531 
Q 1563 422 1919 422 
Q 2459 422 2753 634 
Q 3047 847 3047 1241 
Q 3047 1584 2836 1778 
Q 2625 1972 2144 2069 
L 1759 2144 
Q 1053 2284 737 2584 
Q 422 2884 422 3419 
Q 422 4038 858 4394 
Q 1294 4750 2059 4750 
Q 2388 4750 2728 4690 
Q 3069 4631 3425 4513 
z
" transform="scale(0.015625)"/>
       <path id="DejaVuSans-67" d="M 2906 1791 
Q 2906 2416 2648 2759 
Q 2391 3103 1925 3103 
Q 1463 3103 1205 2759 
Q 947 2416 947 1791 
Q 947 1169 1205 825 
Q 1463 481 1925 481 
Q 2391 481 2648 825 
Q 2906 1169 2906 1791 
z
M 3481 434 
Q 3481 -459 3084 -895 
Q 2688 -1331 1869 -1331 
Q 1566 -1331 1297 -1286 
Q 1028 -1241 775 -1147 
L 775 -588 
Q 1028 -725 1275 -790 
Q 1522 -856 1778 -856 
Q 2344 -856 2625 -561 
Q 2906 -266 2906 331 
L 2906 616 
Q 2728 306 2450 153 
Q 2172 0 1784 0 
Q 1141 0 747 490 
Q 353 981 353 1791 
Q 353 2603 747 3093 
Q 1141 3584 1784 3584 
Q 2172 3584 2450 3431 
Q 2728 3278 2906 2969 
L 2906 3500 
L 3481 3500 
L 3481 434 
z
" transform="scale(0.015625)"/>
       <path id="DejaVuSans-79" d="M 2059 -325 
Q 1816 -950 1584 -1140 
Q 1353 -1331 966 -1331 
L 506 -1331 
L 506 -850 
L 844 -850 
Q 1081 -850 1212 -737 
Q 1344 -625 1503 -206 
L 1606 56 
L 191 3500 
L 800 3500 
L 1894 763 
L 2988 3500 
L 3597 3500 
L 2059 -325 
z
" transform="scale(0.015625)"/>
      </defs>
      <use xlink:href="#DejaVuSans-53"/>
      <use xlink:href="#DejaVuSans-74" x="63.476562"/>
      <use xlink:href="#DejaVuSans-72" x="102.685547"/>
      <use xlink:href="#DejaVuSans-61" x="143.798828"/>
      <use xlink:href="#DejaVuSans-74" x="205.078125"/>
      <use xlink:href="#DejaVuSans-65" x="244.287109"/>
      <use xlink:href="#DejaVuSans-67" x="305.810547"/>
      <use xlink:href="#DejaVuSans-79" x="369.287109"/>
     </g>
    </g>
    <g id="line2d_23">
     <path d="M 63 53.696562 
L 73 53.696562 
L 83 53.696562 
" style="fill: none; stroke: #ff7f0e; stroke-width: 1.5; stroke-linecap: square"/>
    </g>
    <g id="text_17">
     <!-- SPY -->
     <g transform="translate(91 57.196562)scale(0.1 -0.1)">
      <defs>
       <path id="DejaVuSans-59" d="M -13 4666 
L 666 4666 
L 1959 2747 
L 3244 4666 
L 3922 4666 
L 2272 2222 
L 2272 0 
L 1638 0 
L 1638 2222 
L -13 4666 
z
" transform="scale(0.015625)"/>
      </defs>
      <use xlink:href="#DejaVuSans-53"/>
      <use xlink:href="#DejaVuSans-50" x="63.476562"/>
      <use xlink:href="#DejaVuSans-59" x="121.529297"/>
     </g>
    </g>
   </g>
  </g>
 </g>
 <defs>
  <clipPath id="pfeccf4e670">
   <rect x="54" y="25.92" width="334.8" height="166.32"/>
  </clipPath>
 </defs>
</svg>
